<svg xmlns="http://www.w3.org/2000/svg" viewBox="0 0 216 89.5"><defs><style>.cls-1{fill:#009245;}.cls-1,.cls-2,.cls-4,.cls-5{stroke:#009245;stroke-miterlimit:10;}.cls-2{fill:#006837;}.cls-3{fill:#9e005d;}.cls-4{fill:none;}.cls-5{fill:#fff;}</style></defs><g id="Capa_2" data-name="Capa 2"><g id="Capa_1-2" data-name="Capa 1"><path class="cls-1" d="M156.68,52.47l17.16,12.46c4.13,3,9.08,3.24,11,.53h0c2-2.72.22-7.35-3.91-10.35L163.82,42.64Z"/><path class="cls-1" d="M56.7,52.47,39.54,64.93c-4.13,3-9.08,3.24-11,.53h0c-2-2.72-.22-7.35,3.91-10.35L49.56,42.64Z"/><path class="cls-2" d="M109,.5,11.25,3C5.31,3,.5,12.18.5,23.5h0C.5,34.82,5.31,44,11.25,44h193.5c5.94,0,10.75-9.18,10.75-20.5h0c0-11.32-4.81-20.5-10.75-20.5Z"/><path class="cls-3" d="M170,37.5c-9-9-30.66-10.85-39.94-9.59-3.32.45-9.06,1.59-13.65,2.69-5.06,1.21-13.68,3-29.41-.1C62,25.5,45.55,38,45.55,38Z"/><path class="cls-4" d="M78.46,6H13.05C7.22,6,2.5,13.61,2.5,23h0c0,9.39,4.72,17,10.55,17H203c5.83,0,10.55-7.61,10.55-17h0c0-9.39-4.72-17-10.55-17Z"/><path class="cls-5" d="M23.55,5.79c-.37,2.76-2.76,6.82-5.49,6.78s-4.9-4-5.33-6.65"/><path class="cls-5" d="M34.55,5.79c-.37,2.76-2.76,9.82-5.49,9.78s-4.9-7-5.33-9.65"/><path class="cls-5" d="M45.55,5.79c-.37,2.76-2.76,7.82-5.49,7.78s-4.9-5-5.33-7.65"/><path class="cls-5" d="M56.55,5.79c-.37,2.76-2.76,5.82-5.49,5.78s-4.9-3-5.33-5.65"/><path class="cls-5" d="M67.55,5.79c-.37,2.76-2.76,10.82-5.49,10.78s-4.9-8-5.33-10.65"/><path class="cls-5" d="M78.55,5.79a5.46,5.46,0,0,1-10.82.13"/><path class="cls-5" d="M89.55,5.79c-.37,2.76-2.76,7.82-5.49,7.78s-4.9-5-5.33-7.65"/><path class="cls-5" d="M100.55,5.79c-.37,2.76-2.76,8.82-5.49,8.78s-4.9-6-5.33-8.65"/><path class="cls-5" d="M111.55,5.79c-.37,2.76-2.76,7.82-5.49,7.78s-4.9-5-5.33-7.65"/><path class="cls-5" d="M122.55,5.79c-.37,2.76-2.76,8.82-5.49,8.78s-4.9-6-5.33-8.65"/><path class="cls-5" d="M133.55,5.79c-.37,2.76-2.76,7.82-5.49,7.78s-4.9-5-5.33-7.65"/><path class="cls-5" d="M144.55,5.79a5.46,5.46,0,0,1-10.82.13"/><path class="cls-5" d="M155.55,5.79c-.37,2.76-2.76,10.82-5.49,10.78s-4.9-8-5.33-10.65"/><path class="cls-5" d="M166.55,5.79c-.37,2.76-2.76,6.82-5.49,6.78s-4.9-4-5.33-6.65"/><path class="cls-5" d="M177.55,5.79c-.37,2.76-2.76,7.82-5.49,7.78s-4.9-5-5.33-7.65"/><path class="cls-5" d="M188.55,5.79c-.37,2.76-2.76,9.82-5.49,9.78s-4.9-7-5.33-9.65"/><path class="cls-5" d="M199.55,5.79c-.37,2.76-2.76,7.82-5.49,7.78s-4.9-5-5.33-7.65"/><path class="cls-5" d="M24.55,39.57c-.37-2.76-2.76-8.82-5.49-8.78s-4.9,6-5.33,8.65"/><path class="cls-5" d="M35.55,39.57c-.37-2.76-2.76-9.82-5.49-9.78s-4.9,7-5.33,9.65"/><path class="cls-5" d="M46.55,39.57c-.37-2.76-2.76-6.82-5.49-6.78s-4.9,4-5.33,6.65"/><path class="cls-5" d="M57.55,39.57c-.37-2.76-2.76-11.82-5.49-11.78s-4.9,9-5.33,11.65"/><path class="cls-5" d="M68.55,39.57c-.37-2.76-2.76-6.82-5.49-6.78s-4.9,4-5.33,6.65"/><path class="cls-5" d="M79.55,39.57c-.37-2.76-2.76-8.82-5.49-8.78s-4.9,6-5.33,8.65"/><path class="cls-5" d="M90.55,39.57c-.37-2.76-2.76-5.82-5.49-5.78s-4.9,3-5.33,5.65"/><path class="cls-5" d="M101.55,39.57c-.37-2.76-2.76-5.82-5.49-5.78s-4.9,3-5.33,5.65"/><path class="cls-5" d="M112.55,39.57c-.37-2.76-2.76-6.82-5.49-6.78s-4.9,4-5.33,6.65"/><path class="cls-5" d="M123.55,39.57c-.37-2.76-2.76-6.82-5.49-6.78s-4.9,4-5.33,6.65"/><path class="cls-5" d="M134.55,39.57c-.37-2.76-2.76-5.82-5.49-5.78s-4.9,3-5.33,5.65"/><path class="cls-5" d="M145.55,39.57c-.37-2.76-2.76-7.82-5.49-7.78s-4.9,5-5.33,7.65"/><path class="cls-5" d="M156.55,39.57c-.37-2.76-2.76-5.82-5.49-5.78s-4.9,3-5.33,5.65"/><path class="cls-5" d="M167.55,39.57c-.37-2.76-2.76-11.82-5.49-11.78s-4.9,9-5.33,11.65"/><path class="cls-5" d="M178.55,39.57c-.37-2.76-2.76-6.82-5.49-6.78s-4.9,4-5.33,6.65"/><path class="cls-5" d="M189.55,39.57c-.37-2.76-2.76-9.82-5.49-9.78s-4.9,7-5.33,9.65"/><path class="cls-5" d="M200.55,39.57c-.37-2.76-2.76-8.82-5.49-8.78s-4.9,6-5.33,8.65"/><path class="cls-1" d="M90,75v9.75C90,87.1,92.72,89,96.07,89h0c3.36,0,6.08-1.9,6.08-4.25V75Z"/><path class="cls-1" d="M116,75v9.75c0,2.35,2.72,4.25,6.07,4.25h0c3.36,0,6.08-1.9,6.08-4.25V75Z"/></g></g></svg>