<svg xmlns="http://www.w3.org/2000/svg" viewBox="0 0 216 85.5"><defs><style>.cls-1{fill:#;}.cls-1,.cls-2,.cls-4,.cls-5{stroke:#009245;stroke-miterlimit:10;}.cls-2{fill:#4CAF50;}.cls-3{fill:#9e005d;}.cls-4{fill:none;}.cls-5{fill:#fff;}</style></defs><g id="Capa_2" data-name="Capa 2"><g id="Capa_1-2" data-name="Capa 1"><path class="cls-2" d="M109,.5,11.25,3.63C5.31,3.63.5,15.13.5,29.32h0C.5,43.5,5.31,55,11.25,55h193.5c5.94,0,10.75-11.5,10.75-25.68h0c0-14.19-4.81-25.69-10.75-25.69Z"/><path class="cls-3" d="M170,46.86c-9-11.28-30.66-13.6-39.94-12a136,136,0,0,0-13.65,3.37C111.35,39.73,102.73,42,87,38.09a46.21,46.21,0,0,0-41.45,9.39Z"/><path class="cls-4" d="M78.46,7.39H13.05C7.22,7.39,2.5,16.93,2.5,28.69h0C2.5,40.45,7.22,50,13.05,50H203c5.83,0,10.55-9.54,10.55-21.3h0c0-11.76-4.72-21.3-10.55-21.3Z"/><path class="cls-5" d="M23.55,7.12c-.37,3.46-2.76,8.55-5.49,8.5s-4.9-5-5.33-8.33"/><path class="cls-5" d="M34.55,7.12c-.37,3.46-2.76,12.3-5.49,12.26s-4.9-8.77-5.33-12.09"/><path class="cls-5" d="M45.55,7.12c-.37,3.46-2.76,9.8-5.49,9.75s-4.9-6.26-5.33-9.58"/><path class="cls-5" d="M56.55,7.12c-.37,3.46-2.76,7.29-5.49,7.25s-4.9-3.76-5.33-7.08"/><path class="cls-5" d="M67.55,7.12c-.37,3.46-2.76,13.56-5.49,13.51s-4.9-10-5.33-13.34"/><path class="cls-5" d="M78.55,7.12c-.37,3.46-2.76,6-5.49,6s-4.9-2.51-5.33-5.83"/><path class="cls-5" d="M89.55,7.12c-.37,3.46-2.76,9.8-5.49,9.75s-4.9-6.26-5.33-9.58"/><path class="cls-5" d="M100.55,7.12c-.37,3.46-2.76,11.05-5.49,11s-4.9-7.52-5.33-10.84"/><path class="cls-5" d="M111.55,7.12c-.37,3.46-2.76,9.8-5.49,9.75s-4.9-6.26-5.33-9.58"/><path class="cls-5" d="M122.55,7.12c-.37,3.46-2.76,11.05-5.49,11s-4.9-7.52-5.33-10.84"/><path class="cls-5" d="M133.55,7.12c-.37,3.46-2.76,9.8-5.49,9.75s-4.9-6.26-5.33-9.58"/><path class="cls-5" d="M144.55,7.12c-.37,3.46-2.76,6-5.49,6s-4.9-2.51-5.33-5.83"/><path class="cls-5" d="M155.55,7.12c-.37,3.46-2.76,13.56-5.49,13.51s-4.9-10-5.33-13.34"/><path class="cls-5" d="M166.55,7.12c-.37,3.46-2.76,8.55-5.49,8.5s-4.9-5-5.33-8.33"/><path class="cls-5" d="M177.55,7.12c-.37,3.46-2.76,9.8-5.49,9.75s-4.9-6.26-5.33-9.58"/><path class="cls-5" d="M188.55,7.12c-.37,3.46-2.76,12.3-5.49,12.26s-4.9-8.77-5.33-12.09"/><path class="cls-5" d="M199.55,7.12c-.37,3.46-2.76,9.8-5.49,9.75s-4.9-6.26-5.33-9.58"/><path class="cls-5" d="M24.55,49.45c-.37-3.46-2.76-11.05-5.49-11S14.16,46,13.73,49.29"/><path class="cls-5" d="M35.55,49.45c-.37-3.46-2.76-12.3-5.49-12.26s-4.9,8.78-5.33,12.1"/><path class="cls-5" d="M46.55,49.45c-.37-3.46-2.76-8.54-5.49-8.5s-4.9,5-5.33,8.34"/><path class="cls-5" d="M57.55,49.45c-.37-3.46-2.76-14.81-5.49-14.76S47.16,46,46.73,49.29"/><path class="cls-5" d="M68.55,49.45c-.37-3.46-2.76-8.54-5.49-8.5s-4.9,5-5.33,8.34"/><path class="cls-5" d="M79.55,49.45c-.37-3.46-2.76-11.05-5.49-11S69.16,46,68.73,49.29"/><path class="cls-5" d="M90.55,49.45c-.37-3.46-2.76-7.29-5.49-7.24s-4.9,3.76-5.33,7.08"/><path class="cls-5" d="M101.55,49.45c-.37-3.46-2.76-7.29-5.49-7.24s-4.9,3.76-5.33,7.08"/><path class="cls-5" d="M112.55,49.45c-.37-3.46-2.76-8.54-5.49-8.5s-4.9,5-5.33,8.34"/><path class="cls-5" d="M123.55,49.45c-.37-3.46-2.76-8.54-5.49-8.5s-4.9,5-5.33,8.34"/><path class="cls-5" d="M134.55,49.45c-.37-3.46-2.76-7.29-5.49-7.24s-4.9,3.76-5.33,7.08"/><path class="cls-5" d="M145.55,49.45c-.37-3.46-2.76-9.79-5.49-9.75s-4.9,6.27-5.33,9.59"/><path class="cls-5" d="M156.55,49.45c-.37-3.46-2.76-7.29-5.49-7.24s-4.9,3.76-5.33,7.08"/><path class="cls-5" d="M167.55,49.45c-.37-3.46-2.76-14.81-5.49-14.76s-4.9,11.28-5.33,14.6"/><path class="cls-5" d="M178.55,49.45c-.37-3.46-2.76-8.54-5.49-8.5s-4.9,5-5.33,8.34"/><path class="cls-5" d="M189.55,49.45c-.37-3.46-2.76-12.3-5.49-12.26s-4.9,8.78-5.33,12.1"/><path class="cls-5" d="M200.55,49.45c-.37-3.46-2.76-11.05-5.49-11s-4.9,7.52-5.33,10.84"/></g></g></svg>