<svg xmlns="http://www.w3.org/2000/svg" xmlns:xlink="http://www.w3.org/1999/xlink" viewBox="0 0 22.4 50.58"><defs><style>.cls-1{fill:url(#Degradado_sin_nombre_28);}.cls-2{fill:url(#Degradado_sin_nombre_28-2);}.cls-3{fill:#323232;}.cls-4{fill:url(#linear-gradient);}.cls-5{fill:url(#linear-gradient-2);}</style><linearGradient id="Degradado_sin_nombre_28" x1="873.45" y1="2.72" x2="873.45" y2="19.92" gradientTransform="matrix(-1, 0, 0, 1, 891.28, -2.5)" gradientUnits="userSpaceOnUse"><stop offset="0" stop-color="#a7a9ac"/><stop offset="0" stop-color="#d1d3d4"/><stop offset="0.12" stop-color="#8b9298"/><stop offset="0.15" stop-color="#92989e"/><stop offset="0.3" stop-color="#bcbfc2"/><stop offset="0.43" stop-color="#d6d7d8"/><stop offset="0.5" stop-color="#e0e0e0"/><stop offset="0.58" stop-color="#dfdedd"/><stop offset="0.63" stop-color="#ded9d6"/><stop offset="0.67" stop-color="#dbd6d3"/><stop offset="0.71" stop-color="#d0cdca"/><stop offset="0.75" stop-color="#bfbdbc"/><stop offset="0.78" stop-color="#a8a8a8"/><stop offset="0.91" stop-color="#85898a"/><stop offset="1" stop-color="#465053"/><stop offset="1" stop-color="#4e595c"/><stop offset="1" stop-color="#69787d"/><stop offset="1" stop-color="#809298"/><stop offset="1" stop-color="#91a6ad"/><stop offset="1" stop-color="#9eb4bc"/><stop offset="1" stop-color="#a5bcc4"/><stop offset="1" stop-color="#a7bfc7"/></linearGradient><linearGradient id="Degradado_sin_nombre_28-2" x1="883.49" y1="2.72" x2="883.49" y2="19.92" xlink:href="#Degradado_sin_nombre_28"/><linearGradient id="linear-gradient" x1="2.14" y1="3.11" x2="2.14" y2="50.33" gradientTransform="translate(2.5 -2.5)" gradientUnits="userSpaceOnUse"><stop offset="0" stop-color="#a7bfc7"/><stop offset="0.01" stop-color="#8fa3aa"/><stop offset="0.02" stop-color="#75858b"/><stop offset="0.02" stop-color="#606e72"/><stop offset="0.03" stop-color="#515d61"/><stop offset="0.04" stop-color="#495356"/><stop offset="0.06" stop-color="#465053"/><stop offset="0.06" stop-color="#606869"/><stop offset="0.07" stop-color="#868a8b"/><stop offset="0.08" stop-color="#a6a7a6"/><stop offset="0.09" stop-color="#bfbdbb"/><stop offset="0.09" stop-color="#d0cdca"/><stop offset="0.1" stop-color="#dbd6d3"/><stop offset="0.12" stop-color="#ded9d6"/><stop offset="0.21" stop-color="#dbd7d4"/><stop offset="0.27" stop-color="#d3cfcc"/><stop offset="0.32" stop-color="#c4c1c0"/><stop offset="0.37" stop-color="#afafad"/><stop offset="0.41" stop-color="#949696"/><stop offset="0.45" stop-color="#737879"/><stop offset="0.49" stop-color="#4c5558"/><stop offset="0.49" stop-color="#465053"/><stop offset="0.51" stop-color="#61696c"/><stop offset="0.53" stop-color="#888d8f"/><stop offset="0.56" stop-color="#a8abac"/><stop offset="0.59" stop-color="#c1c3c3"/><stop offset="0.62" stop-color="#d2d3d3"/><stop offset="0.65" stop-color="#ddd"/><stop offset="0.68" stop-color="#e0e0e0"/><stop offset="0.72" stop-color="#d6d7d8"/><stop offset="0.78" stop-color="#bcbfc2"/><stop offset="0.86" stop-color="#92989e"/><stop offset="0.88" stop-color="#8b9298"/><stop offset="1" stop-color="#d1d3d4"/><stop offset="1" stop-color="#a7a9ac"/></linearGradient><linearGradient id="linear-gradient-2" x1="12.14" y1="3.11" x2="12.14" y2="50.33" xlink:href="#linear-gradient"/></defs><g id="Capa_2" data-name="Capa 2"><g id="OBJECTS"><path class="cls-1" d="M22.38,16.63c.21-7.52-.88-7.06-3.26-14.28a3.07,3.07,0,0,0-4-2.15,3.28,3.28,0,0,0-1.72,4.08c2.17,6.59,3.15,5.47,2.94,12.33"/><path class="cls-2" d="M12.34,16.63c.2-7.52-.89-7.06-3.26-14.28A3.08,3.08,0,0,0,5.11.2,3.28,3.28,0,0,0,3.38,4.28c2.17,6.59,3.16,5.47,3,12.33"/><rect class="cls-3" y="37.15" width="21.14" height="13.43" rx="3.06"/><path class="cls-4" d="M7.31,45.46h0a3.07,3.07,0,0,1-4-2.15,65.48,65.48,0,0,1,0-41A3.07,3.07,0,0,1,7.31.2h0A3.27,3.27,0,0,1,9,4.28a59.41,59.41,0,0,0,0,37.1A3.28,3.28,0,0,1,7.31,45.46Z"/><path class="cls-5" d="M17.31,45.46h0a3.07,3.07,0,0,1-4-2.15,65.48,65.48,0,0,1,0-41,3.07,3.07,0,0,1,4-2.15h0A3.27,3.27,0,0,1,19,4.28a59.41,59.41,0,0,0,0,37.1A3.28,3.28,0,0,1,17.31,45.46Z"/></g></g></svg>