<svg xmlns="http://www.w3.org/2000/svg" viewBox="0 0 2807 1838.04"><defs><style>.cls-1{fill:#b3b3b3;}</style></defs><g id="Capa_2" data-name="Capa 2"><g id="Layer_1" data-name="Layer 1"><path class="cls-1" d="M2807,1758H0V0H2807ZM3.63,1754.41H2803.37V3.63H3.63Z" transform="translate(0 80)"/><rect class="cls-1" x="1.81" y="1746.69" width="2803.37" height="3.63"/><rect class="cls-1" x="1.81" y="1658.97" width="2803.37" height="3.63"/><rect class="cls-1" x="1.81" y="1571.25" width="2803.37" height="3.63"/><rect class="cls-1" x="1.81" y="1483.53" width="2803.37" height="3.63"/><rect class="cls-1" x="1.81" y="1395.81" width="2803.37" height="3.63"/><rect class="cls-1" x="1.81" y="1308.09" width="2803.37" height="3.63"/><rect class="cls-1" x="1.81" y="1220.37" width="2803.37" height="3.63"/><rect class="cls-1" x="1.81" y="1132.65" width="2803.37" height="3.63"/><rect class="cls-1" x="1.81" y="1044.93" width="2803.37" height="3.63"/><rect class="cls-1" x="1.81" y="957.21" width="2803.37" height="3.63"/><rect class="cls-1" x="1.81" y="869.49" width="2803.37" height="3.63"/><rect class="cls-1" x="1.81" y="781.76" width="2803.37" height="3.63"/><rect class="cls-1" x="1.81" y="694.04" width="2803.37" height="3.63"/><rect class="cls-1" x="1.81" y="606.32" width="2803.37" height="3.63"/><rect class="cls-1" x="1.81" y="518.6" width="2803.37" height="3.63"/><rect class="cls-1" x="1.81" y="430.88" width="2803.37" height="3.63"/><rect class="cls-1" x="1.81" y="343.16" width="2803.37" height="3.63"/><rect class="cls-1" x="1.81" y="255.44" width="2803.37" height="3.63"/><rect class="cls-1" x="1.81" y="167.72" width="2803.37" height="3.63"/><rect class="cls-1" x="2718.42" y="81.81" width="3.63" height="1754.41"/><rect class="cls-1" x="2633.47" y="81.81" width="3.63" height="1754.41"/><rect class="cls-1" x="2548.52" y="81.81" width="3.63" height="1754.41"/><rect class="cls-1" x="2463.57" y="81.81" width="3.63" height="1754.41"/><rect class="cls-1" x="2378.62" y="81.81" width="3.63" height="1754.41"/><rect class="cls-1" x="2293.67" y="81.81" width="3.63" height="1754.41"/><rect class="cls-1" x="2208.72" y="81.81" width="3.63" height="1754.41"/><rect class="cls-1" x="2123.77" y="81.81" width="3.63" height="1754.41"/><rect class="cls-1" x="2038.82" y="81.81" width="3.63" height="1754.41"/><rect class="cls-1" x="1953.87" y="81.81" width="3.63" height="1754.41"/><rect class="cls-1" x="1868.92" y="81.81" width="3.63" height="1754.41"/><rect class="cls-1" x="1783.96" y="81.81" width="3.63" height="1754.41"/><rect class="cls-1" x="1699.01" y="81.81" width="3.63" height="1754.41"/><rect class="cls-1" x="1614.06" y="81.81" width="3.63" height="1754.41"/><rect class="cls-1" x="1529.11" y="81.81" width="3.63" height="1754.41"/><rect class="cls-1" x="1444.16" y="81.81" width="3.63" height="1754.41"/><rect class="cls-1" x="1359.21" y="81.81" width="3.63" height="1754.41"/><rect class="cls-1" x="1274.26" y="81.81" width="3.63" height="1754.41"/><rect class="cls-1" x="1189.31" y="81.81" width="3.63" height="1754.41"/><rect class="cls-1" x="1104.36" y="81.81" width="3.63" height="1754.41"/><rect class="cls-1" x="1019.41" y="81.81" width="3.63" height="1754.41"/><rect class="cls-1" x="934.46" y="81.81" width="3.63" height="1754.41"/><rect class="cls-1" x="849.51" y="81.81" width="3.63" height="1754.41"/><rect class="cls-1" x="764.56" y="81.81" width="3.63" height="1754.41"/><rect class="cls-1" x="679.61" y="81.81" width="3.63" height="1754.41"/><rect class="cls-1" x="594.66" y="81.81" width="3.63" height="1754.41"/><rect class="cls-1" x="509.7" y="81.81" width="3.63" height="1754.41"/><rect class="cls-1" x="424.75" y="81.81" width="3.63" height="1754.41"/><rect class="cls-1" x="339.8" y="81.81" width="3.63" height="1754.41"/><rect class="cls-1" x="254.85" y="81.81" width="3.63" height="1754.41"/><rect class="cls-1" x="169.9" y="81.81" width="3.63" height="1754.41"/><rect class="cls-1" x="84.95" y="81.81" width="3.63" height="1754.41"/><line class="cls-1" x1="1.63" x2="1.63" y2="83.63"/></g></g></svg>