<svg xmlns="http://www.w3.org/2000/svg" viewBox="0 0 949.56 873.65"><defs><style>.cls-1{font-size:30px;font-family:MyriadPro-Regular, Myriad Pro;}.cls-2{letter-spacing:0em;}.cls-3{letter-spacing:-0.01em;}.cls-4{letter-spacing:0em;}.cls-5,.cls-7{fill:none;stroke-miterlimit:10;}.cls-5{stroke:#ccc;stroke-width:0.75px;}.cls-6{opacity:0.56;}.cls-7{stroke:#b3b3b3;opacity:0.65;}.cls-8{font-size:29px;font-family:Perpetua;}</style></defs><g id="Capa_2" data-name="Capa 2"><g id="Capa_1-2" data-name="Capa 1"><text class="cls-1" transform="translate(411.81 866.15)">% <tspan class="cls-2" x="30.12" y="0">A</tspan><tspan class="cls-3" x="48.39" y="0">r</tspan><tspan class="cls-4" x="57.9" y="0">ena</tspan></text><text class="cls-1" transform="translate(743 342.57) rotate(60)">% Limo</text><text class="cls-1" transform="translate(146.71 428.07) rotate(-60)">% <tspan class="cls-2" x="30.12" y="0">A</tspan><tspan class="cls-3" x="48.39" y="0">r</tspan><tspan x="57.9" y="0">cilla</tspan></text><polygon class="cls-5" points="464.52 19.04 901.52 775.04 26.52 775.04 464.52 19.04"/><g id="lienas"><g class="cls-6"><line class="cls-7" x1="112.52" y1="775.04" x2="507.52" y2="93.04"/><line class="cls-7" x1="199.02" y1="775.54" x2="550.52" y2="168.04"/><line class="cls-7" x1="288.02" y1="774.54" x2="594.52" y2="244.04"/><line class="cls-7" x1="374.02" y1="774.54" x2="638.52" y2="320.04"/><line class="cls-7" x1="463.02" y1="775.54" x2="683.02" y2="397.54"/><line class="cls-7" x1="549.02" y1="775.54" x2="725.02" y2="469.54"/><line class="cls-7" x1="637.02" y1="775.54" x2="769.8" y2="546.89"/><line class="cls-7" x1="726.02" y1="775.54" x2="813.02" y2="622.54"/><line class="cls-7" x1="813.02" y1="775.54" x2="856.02" y2="698.54"/><line class="cls-7" x1="813.02" y1="775.04" x2="419.02" y2="93.04"/><line class="cls-7" x1="726.52" y1="775.54" x2="377.02" y2="169.04"/><line class="cls-7" x1="637.52" y1="775.54" x2="332.02" y2="244.04"/><line class="cls-7" x1="549.52" y1="775.54" x2="289.02" y2="320.04"/><line class="cls-7" x1="463.52" y1="775.54" x2="243.52" y2="397.54"/><line class="cls-7" x1="374.52" y1="774.54" x2="201.52" y2="469.54"/><line class="cls-7" x1="288.52" y1="774.54" x2="156.75" y2="546.89"/><line class="cls-7" x1="199.52" y1="775.54" x2="113.52" y2="622.54"/><polyline class="cls-7" points="112.52 775.54 70.52 698.54 857.02 698.54"/><line class="cls-7" x1="113.02" y1="622.54" x2="813.52" y2="622.54"/><line class="cls-7" x1="157.02" y1="546.54" x2="769.52" y2="546.54"/><line class="cls-7" x1="202.02" y1="471.54" x2="725.52" y2="471.54"/><line class="cls-7" x1="244.02" y1="397.54" x2="683.52" y2="397.54"/><line class="cls-7" x1="289.02" y1="319.54" x2="639.52" y2="319.54"/><line class="cls-7" x1="332.02" y1="244.54" x2="595.52" y2="244.54"/><line class="cls-7" x1="377.02" y1="169.54" x2="550.52" y2="168.54"/><line class="cls-7" x1="419.02" y1="93.54" x2="507.52" y2="92.54"/></g><text class="cls-8" transform="translate(381.36 97.81)">90</text><text class="cls-8" transform="translate(516.36 97.81)">10</text><text class="cls-8" transform="translate(799.36 808.81)">10</text><text class="cls-8" transform="translate(31.36 705.81)">10</text><text class="cls-8" transform="translate(563.36 175.81)">20</text><text class="cls-8" transform="translate(711.36 808.81)">20</text><text class="cls-8" transform="translate(74.36 629.81)">20</text><text class="cls-8" transform="translate(607.36 249.81)">30</text><text class="cls-8" transform="translate(623.36 808.81)">30</text><text class="cls-8" transform="translate(118.36 553.81)">30</text><text class="cls-8" transform="translate(653.36 326.81)">40</text><text class="cls-8" transform="translate(535.36 808.81)">40</text><text class="cls-8" transform="translate(160.36 477.81)">40</text><text class="cls-8" transform="translate(697.36 403.81)">50</text><text class="cls-8" transform="translate(451.36 808.81)">50</text><text class="cls-8" transform="translate(202.36 403.81)">50</text><text class="cls-8" transform="translate(738.36 477.81)">60</text><text class="cls-8" transform="translate(360.36 808.81)">60</text><text class="cls-8" transform="translate(247.36 326.81)">60</text><text class="cls-8" transform="translate(780.36 553.81)">70</text><text class="cls-8" transform="translate(275.36 808.81)">70</text><text class="cls-8" transform="translate(292.36 249.81)">70</text><text class="cls-8" transform="translate(868.36 705.81)">90</text><text class="cls-8" transform="translate(99.36 808.81)">90</text><text class="cls-8" transform="translate(909.72 780.81)">100</text><text class="cls-8" transform="translate(20.72 808.81)">100</text><text class="cls-8" transform="translate(825.36 628.81)">80</text><text class="cls-8" transform="translate(184.36 808.81)">80</text><text class="cls-8" transform="translate(335.36 175.81)">80</text><text class="cls-8" transform="translate(484 22.81)">0</text><text class="cls-8" transform="translate(887 808.81)">0</text><text class="cls-8" transform="translate(0 780.81)">0</text><text class="cls-8" transform="translate(415.72 23.81)">100</text></g></g></g></svg>