<svg xmlns="http://www.w3.org/2000/svg" viewBox="0 0 787.34 683.75"><defs><style>.cls-1{opacity:0.56;}.cls-2{fill:none;stroke:#b3b3b3;stroke-miterlimit:10;opacity:0.65;}</style></defs><g id="Capa_2" data-name="Capa 2"><g id="Capa_1-2" data-name="Capa 1"><g class="cls-1"><line class="cls-2" x1="42.84" y1="683" x2="437.84" y2="1"/><line class="cls-2" x1="129.34" y1="683.5" x2="480.84" y2="76"/><line class="cls-2" x1="218.34" y1="682.5" x2="524.84" y2="152"/><line class="cls-2" x1="304.34" y1="682.5" x2="568.84" y2="228"/><line class="cls-2" x1="393.34" y1="683.5" x2="613.34" y2="305.5"/><line class="cls-2" x1="479.34" y1="683.5" x2="655.34" y2="377.5"/><line class="cls-2" x1="567.34" y1="683.5" x2="700.12" y2="454.85"/><line class="cls-2" x1="656.34" y1="683.5" x2="743.34" y2="530.5"/><line class="cls-2" x1="743.34" y1="683.5" x2="786.34" y2="606.5"/><line class="cls-2" x1="743.34" y1="683" x2="349.34" y2="1"/><line class="cls-2" x1="656.84" y1="683.5" x2="307.34" y2="77"/><line class="cls-2" x1="567.84" y1="683.5" x2="262.34" y2="152"/><line class="cls-2" x1="479.84" y1="683.5" x2="219.34" y2="228"/><line class="cls-2" x1="393.84" y1="683.5" x2="173.84" y2="305.5"/><line class="cls-2" x1="304.84" y1="682.5" x2="131.84" y2="377.5"/><line class="cls-2" x1="218.84" y1="682.5" x2="87.07" y2="454.85"/><line class="cls-2" x1="129.84" y1="683.5" x2="43.84" y2="530.5"/><polyline class="cls-2" points="42.84 683.5 0.84 606.5 787.34 606.5"/><line class="cls-2" x1="43.34" y1="530.5" x2="743.84" y2="530.5"/><line class="cls-2" x1="87.34" y1="454.5" x2="699.84" y2="454.5"/><line class="cls-2" x1="132.34" y1="379.5" x2="655.84" y2="379.5"/><line class="cls-2" x1="174.34" y1="305.5" x2="613.84" y2="305.5"/><line class="cls-2" x1="219.34" y1="227.5" x2="569.84" y2="227.5"/><line class="cls-2" x1="262.34" y1="152.5" x2="525.84" y2="152.5"/><line class="cls-2" x1="307.34" y1="77.5" x2="480.84" y2="76.5"/><line class="cls-2" x1="349.34" y1="1.5" x2="437.84" y2="0.5"/></g></g></g></svg>