<svg xmlns="http://www.w3.org/2000/svg" viewBox="0 0 542.6 305.99"><defs><style>.cls-1{fill:#60452a;}.cls-2{fill:#6e5131;}.cls-3{fill:#866c3f;}.cls-4{fill:#7a6744;}.cls-5{fill:#b7824c;}.cls-6{fill:#885e3a;}.cls-7{fill:#8b6139;}.cls-8{fill:#855c3a;}.cls-9{fill:#b6814b;}.cls-10{fill:#624026;}.cls-11{fill:#b5804d;}.cls-12{fill:#b6804e;}.cls-13{fill:#a77047;}.cls-14{fill:#b77f4d;}.cls-15{fill:#b6814d;}.cls-16{fill:#a67244;}.cls-17{fill:#ac7b4d;}.cls-18{fill:#a87245;}.cls-19{fill:#a97347;}.cls-20{fill:#89613b;}.cls-21{fill:#8f6943;}.cls-22{fill:#8c7045;}.cls-23{fill:#856a41;}.cls-24{fill:#ad865a;}.cls-25{fill:#bb8a55;}.cls-26{fill:#b18862;}.cls-27{fill:#6c5837;}.cls-28{fill:#a87649;}.cls-29{fill:#a57344;}.cls-30{fill:#725b39;}.cls-31{fill:#a97449;}.cls-32{fill:#7a5d3c;}.cls-33{fill:#aa754c;}.cls-34{fill:#6d5130;}.cls-35{fill:#a77143;}.cls-36{fill:#77553b;}.cls-37{fill:#a57142;}.cls-38{fill:#64472e;}.cls-39{fill:#927a55;}.cls-40{fill:#aa7546;}.cls-41{fill:#87754e;}.cls-42{fill:#5f442c;}.cls-43{fill:#796649;}.cls-44{fill:#885c27;}.cls-45{fill:#604222;}.cls-46{fill:#846545;}.cls-47{fill:#5f452a;}.cls-48{fill:#dbcfbd;}.cls-49{fill:#6c5843;}.cls-50{fill:#b6814f;}.cls-51{fill:#b48351;}.cls-52{fill:#b5804f;}.cls-53{fill:#bd8b57;}.cls-54{fill:#735a39;}.cls-55{fill:#886a44;}.cls-56{fill:#886e48;}.cls-57{fill:#6f5839;}.cls-58{fill:#735939;}.cls-59{fill:#73552b;}.cls-60{fill:#927a58;}.cls-61{fill:#8c7c56;}.cls-62{fill:#79684b;}.cls-63{fill:#674b26;}.cls-64{fill:#8c7046;}.cls-65{fill:#7d6442;}.cls-66{fill:#be8b52;}.cls-67{fill:#bf8b52;}.cls-68{fill:#bf8953;}.cls-69{fill:#a97447;}.cls-70{fill:#a97344;}.cls-71{fill:#ac7546;}.cls-72{fill:#a67046;}.cls-73{fill:#a57245;}.cls-74{fill:#a77145;}.cls-75{fill:#a57047;}.cls-76{fill:#b5814c;}.cls-77{fill:#a77447;}.cls-78{fill:#a67043;}.cls-79{fill:#a66f46;}.cls-80{fill:#a77347;}.cls-81{fill:#9f6f46;}.cls-82{fill:#af7e52;}.cls-83{fill:#b57f4c;}.cls-84{fill:#926237;}.cls-85{fill:#a47044;}.cls-86{fill:#a06b43;}.cls-87{fill:#ae794a;}.cls-88{fill:#8a5a29;}.cls-89{fill:#b7804c;}.cls-90{fill:#a87244;}.cls-91{fill:#a36f44;}.cls-92{fill:#7a5935;}.cls-93{fill:#b37f4d;}.cls-94{fill:#bf8d52;}.cls-95{fill:#b47f4d;}.cls-96{fill:#b8804c;}.cls-97{fill:#b7804b;}.cls-98{fill:#a56f45;}.cls-99{fill:#916239;}.cls-100{fill:#a36e44;}.cls-101{fill:#a87344;}.cls-102{fill:#a46e41;}.cls-103{fill:#a06c41;}.cls-104{fill:#bf8a52;}.cls-105{fill:#bd8a53;}.cls-106{fill:#614729;}.cls-107{fill:#66481a;}.cls-108{fill:#4d3a19;}.cls-109{fill:#a1814a;}.cls-110{fill:#997a48;}.cls-111{fill:#a56e42;}.cls-112{fill:#8c5f38;}.cls-113{fill:#b7814d;}.cls-114{fill:#442e1a;}.cls-115{fill:#c08d51;}.cls-116{fill:#bf8b51;}.cls-117{fill:#a67044;}.cls-118{fill:#bc8b52;}.cls-119{fill:#aa7446;}.cls-120{fill:#bf8b56;}.cls-121{fill:#a97444;}.cls-122{fill:#bd8c55;}.cls-123{fill:#bd8953;}.cls-124{fill:#bc8b53;}.cls-125{fill:#a97445;}.cls-126{fill:#a77146;}.cls-127{fill:#bd8b54;}.cls-128{fill:#bc8b54;}.cls-129{fill:#bf8c51;}.cls-130{fill:#b6814e;}.cls-131{fill:#bd8956;}.cls-132{fill:#a67247;}.cls-133{fill:#bf8b53;}.cls-134{fill:#b6804f;}.cls-135{fill:#b7814c;}.cls-136{fill:#b47c4d;}.cls-137{fill:#a57043;}.cls-138{fill:#b78050;}.cls-139{fill:#a36d45;}.cls-140{fill:#af7c4d;}.cls-141{fill:#a97348;}.cls-142{fill:#a77248;}.cls-143{fill:#6f4826;}.cls-144{fill:#b8814b;}.cls-145{fill:#b27c4f;}.cls-146{fill:#bd8b55;}.cls-147{fill:#a36d43;}.cls-148{fill:#a06c42;}.cls-149{fill:#8f613a;}.cls-150{fill:#6a482a;}.cls-151{fill:#ac7746;}.cls-152{fill:#855d39;}.cls-153{fill:#b67f4c;}.cls-154{fill:#b37c4b;}.cls-155{fill:#aa744b;}.cls-156{fill:#b47d4e;}.cls-157{fill:#b7804e;}.cls-158{fill:#b7814e;}.cls-159{fill:#6c492c;}.cls-160{fill:#a9774b;}.cls-161{fill:#a16c43;}.cls-162{fill:#b8814d;}.cls-163{fill:#b6804c;}.cls-164{fill:#a37043;}.cls-165{fill:#805834;}.cls-166{fill:#a76f44;}.cls-167{fill:#a87246;}.cls-168{fill:#a26c43;}.cls-169{fill:#af7749;}.cls-170{fill:#b47f4f;}.cls-171{fill:#8e623c;}.cls-172{fill:#9f6a45;}.cls-173{fill:#a26b42;}.cls-174{fill:#754c2b;}</style></defs><g id="Capa_2" data-name="Capa 2"><g id="Capa_1-2" data-name="Capa 1"><path class="cls-1" d="M65.4,0,63.89,3.24c-2.34,3.27-.23,5.66,1.59,8.11l0-.06c3.86,7.58-2.72,6.56-6.48,7.87a5.2,5.2,0,0,1-2.31-1c-1.66-2.09-2.93-4.24-1.09-6.88,1.79-1.81,1-4.29,1.66-6.39C58.51,3.38,58.82,1.22,60.52,0Z"/><path class="cls-2" d="M491.79,0c-1.73,3.06-1,6.5-1.52,9.76-2.45,2.44-4.87,3.31-7.18-.17-1-4.08,1.13-7,3.82-9.59Z"/><path class="cls-3" d="M486.91,0c1,3.9-4.32,5.93-2.94,10-.14,1.33-.69,2-2.1,1.3C482.65,7.33,483,3.47,480.4,0Z"/><path class="cls-4" d="M60.52,0c0,2.38.06,4.77-3.28,4.89L54,0Z"/><path class="cls-5" d="M28.2,262c2-3.34,1.57-5.63-2.2-7.71a34.09,34.09,0,0,1-12.83-11.82c2.79-5.6,8.44-2.78,12.72-4.22-5.36-.71-10.69.36-15.94-.61-3.52-5-6-10.31-6.19-16.49.12-9.17,7.56-4.3,12.1-5.69-4.24-2.79-9.72-.91-12.73-5.33-.31-.46-.32,1.65-1.42,1.76-1.82-3.2-1.5-6.69-1.37-10.15a74.66,74.66,0,0,1,17.29-.55c6.18,12,6.18,12.05,19.65,8.94a13.87,13.87,0,0,1,9.53.83c8.25,3.32,17.25.17,25.58,2.95,1.51.5,3.19.51,4.7,1.17,4.17,3,2.77,6.33.41,9.64-6.72,3.76-14.4.86-20.13,3,5.84.1,13.31-2.7,19.7,2.74a4.13,4.13,0,0,1,.45,3.47c-2.23,3.51-5.79,3.53-9.34,3.52a41.25,41.25,0,0,0-13.29,1.68c7.13-.89,14.19-2.94,21.46-1a4.37,4.37,0,0,1,1.7,1.91c1.36,3.65.79,7.45.91,11.19.17,5.14-1.4,8.6-7.13,9.92-4.71,1.1-8.28,4.81-12.28,7.52C49.27,275.63,33.2,272.11,28.2,262Z"/><path class="cls-6" d="M524.46,97.62c0,9.25-4.64,16.5-10.25,23.27-1.88,2.27-3.6,4.2.21,6.3,19.32,10.63,24.82,29.18,27.19,49,2.26,19,.84,37.81-6.33,55.89A43.16,43.16,0,0,1,516,254.36c-4.27,2.42-4.37,4.4-1.14,7.92,9.43,10.25,11.75,22.81,11,36.23-.15,2.48-.34,5.41-2.37,6.66-2.85,1.75-4.08-1.7-5.79-3.12a32.29,32.29,0,0,0-20.93-7.62c-10.56-.1-21.14-.21-31.69.06-5.07.13-7.14-1.54-5.85-6.61a6.79,6.79,0,0,1,3.61-2.1c11.4-3.95,22.83.66,34.24-.17a26,26,0,0,1,5,.64c1.57.32,3.06,1,4.69,1.1,1.84.08,4.14.8,5.26-1,1.38-2.22-.56-4-1.83-5.68-2.28-2.73-5.14-4.93-7.22-7.86-2.78-5.18-1.82-10.72-1.54-16.19,2.14-7,9.54-9.29,13.27-14.88a55.22,55.22,0,0,0,3.77-5.67c5.58-6.55,8.2-14.35,9.56-22.67.47-1.5,1.06-3,1.59-4.42,1.18-3.08.78-6.43,1.65-9.56,1.24-4.22.46-8.55.65-12.82-.33-7.53.51-15.11-1-22.58-.61-3.16-.2-6.46-1.25-9.57-1.51-3.3-2.75-6.75-5-9.7a50.26,50.26,0,0,0-7.8-6.77c-2.05-1.28-4.66-1.45-6.51-3.16a27.33,27.33,0,0,1-6.89-8,10,10,0,0,1-1.22-1.84,8.56,8.56,0,0,1-.58-2.18c-.23-2.93,1.13-5.13,3.19-7,3-2.82,4.25-7,7.48-9.61,4.92-3,7.06-7.43,7.11-13,1.24-2.31.9-6.45,5.55-4.83C525,91.44,525.73,94.59,524.46,97.62Z"/><path class="cls-7" d="M456,284.79c-39.35.21-78.71-1.43-118.07.17-2.4.1-4.81-.21-7.22-.32-.27-3.33,2.35-2.34,3.89-2.36,6.69-.07,13.39-.21,20.09,0q-10.18-.12-20.38-.07c-2.09,0-4.5-.49-5.15,2.52-17.87,2.47-35.72,5.18-53.85,4.58-17.18-1.36-34.39-.24-51.58-.61-6-.08-12,.17-18-.14-25.24-2.93-50.59-.87-75.87-1.48-5.59-.13-11.16.57-16.45-2.56-3-1.79-6.85-.23-10.32-.07-4.8.23-10,.64-12-5.47,2.17-3.92,6-2.77,9.33-3,5.15-.31,10.07,1.52,15.16,1.78a19,19,0,0,1,2.69.58c6.15,1.72,12.46.43,18.68.93a21.84,21.84,0,0,1,4.1.62c6.94,1.63,14,.72,21,.67,16.41,2.52,32.93-.41,49.25.67s32.85.69,49.24,2.36a115.05,115.05,0,0,0,47.18-5.3,42.78,42.78,0,0,1,15.93-2.46c5.92,0,11.64-2.22,17.61-1.62,13.71-.07,27.41-.25,41.11-.07a351.06,351.06,0,0,1,39.39,3.32c2.63.35,5.51.17,6.95,3.14-3.3,3.61-7.61.13-10.33,1.64,8.92.27,18.56-1.78,28.32-2.14a14.67,14.67,0,0,1,6.49-.22,9.2,9.2,0,0,1,4.4,2.37,2.57,2.57,0,0,1,.52,2.31A1.3,1.3,0,0,1,456,284.79Z"/><path class="cls-8" d="M76.82,234.22v-3.29c-1.79-2.15-1.75-4.31,0-6.49-.22-2.72,3.29-5.41.08-8.16-1.78-1.85-2.22-4.17-2.35-6.61a76.21,76.21,0,0,0-1.39-16.91c-.55-14.29-.08-28.57-.23-42.85a28.19,28.19,0,0,1,0-4.11c.06-1.69.06-3.4.15-5.09,0-1.2,0-2.4.1-3.59a40.2,40.2,0,0,1,.48-5.69,19.11,19.11,0,0,1,.53-2.14c.87-2.81,1-5.55-.83-8.09a10.5,10.5,0,0,1-1.4-3.11,30.86,30.86,0,0,1-.53-5.91,30.92,30.92,0,0,0-1.12-7.28,32.67,32.67,0,0,1-.56-8c1.85-8.64,2.77-9.15,13.08-7.34l.58,6.28A12.47,12.47,0,0,1,85,98.59c.85,3.18.59,6.44.6,9.67.08,52.42,0,104.83.3,157.25a165.59,165.59,0,0,0,1,19.41c-3.63,1.46-3,5-3.79,7.81a3.74,3.74,0,0,1-2.77.19C68.5,292,56.58,294,44.79,291.84c-1.86-4.44,2.15-3.86,4.2-4.75,7.11-3.09,14.25-.06,21.35,0,3.08-.3,2.77-3.09,3.61-5,.42-1.19.91-2.33,1.4-3.48.55-13.2,3.83-26.27,1.49-39.56h0A3.39,3.39,0,0,1,76.82,234.22Z"/><path class="cls-9" d="M75.11,144.79l0,3.22a4.33,4.33,0,0,0-.81,3c-.42,11.85-.43,11.85-11.73,10.38,3.86,2.2,11.63-2,12,7.79.24,7.27-2.16,10.16-9.16,11-6.74.84-13.52.73-20.23,1.54a5.8,5.8,0,0,1-2.3-.69c-1.67-4.84,2.28-7.88,3.91-11.58,2.3-5.19,1-7.69-4.59-7.89-7.75-.26-15.51-.43-23.23.58a5.31,5.31,0,0,1-2.2-.66c-.5-4.16-2.16-6.54-6.94-5-1.62.53-3.58,1-5.15-.54,1.85-6,3.86-11.84,8.52-16.33,4.82,2.2,10.21.58,15.11,2.21A3.87,3.87,0,0,1,30,143.44c0,2.72-3.47,3.37-3.72,6.57,8,1.81,16.27,2.35,24.38,3.72,3.17.54,5.17-.9,5.72-4.2.35-2.12.57-4.29,1.73-6.21a4.29,4.29,0,0,1,2-1.47C65.36,141.39,70.48,141.82,75.11,144.79Z"/><path class="cls-10" d="M86.89,284.92c-5.11-1.29-3.48-5.48-3.49-8.67q-.12-89.2-.07-178.41a1.45,1.45,0,0,1,2.4.07c5.38,8.84,2.17,18.61,3.07,27.94,0,1.39,0,2.79,0,4.19s0,2.76,0,4.15c.11,11.4-.3,22.81.3,34.2a14.9,14.9,0,0,1,.7,2.62,44.46,44.46,0,0,1,.55,6.72c.18,1.82.05,3.64.1,5.47q0,12,0,23.9c0,1,0,1.9,0,2.85a71.85,71.85,0,0,1,0,7.19c.66,12.11-1.21,24.27,1,36.33,1,7.1.61,14.24.42,21.36-2.75,2.79,2.22,7.22-2,9.69Z"/><path class="cls-11" d="M73.53,118.74l1.58,1.68a12.9,12.9,0,0,1,.08,9.71h0c-2.1,2.17-4.86,1.84-7.48,1.93s-5.41,0-6.74,3.06A5.9,5.9,0,0,1,59,136.39c-7.67,1.4-15.33.22-23,0A4.88,4.88,0,0,1,34.18,135c-.06-1.94,1.06-4.44-2.53-4.57-2.09-.08-4.36,0-5.77-2.11.2-.4.39-.8.57-1.21,1.74-1.45,2.84-2.73.89-5.12a64.34,64.34,0,0,1-5.73-8.36L21,110.75c5.61-2.29,11.11-.41,16.69.31,9.1,1.18,18.26,1.85,27.3,3.53C68.34,115.2,71.32,116.06,73.53,118.74Z"/><path class="cls-12" d="M76.76,281.34,75.15,283c-3.94,3.32-8.78,2.7-13.11,2.07-11.21-1.62-22.44-1.09-33.66-1.35-3.5-.08-7-.48-10.06-2.37.22-5.74,2-10.79,6.29-14.81,8,2.39,15.51,6.18,24.19,6.14,6.31,0,11.69-1.45,16.08-6.15,1.83-2,3.76-4,6.3-5,3.68-1.49,6.62-1.13,6.36,3.83C77.26,270.68,78.58,276.09,76.76,281.34Z"/><path class="cls-13" d="M71.88,97.56l.06,8.14c-4.88,3.59-10.19,1.28-14.82.15-11.8-2.9-23.42-6.57-35.4-8.79a9,9,0,0,1-4.89-2.73,24.39,24.39,0,0,1-.25-9.74c5.16-3.29,9.88-.17,14.54,1.32s9.05,3.24,14,2.81C53.77,92.46,63.8,92.05,71.88,97.56Z"/><path class="cls-14" d="M16.83,94.33a148.49,148.49,0,0,1,33.8,7.52c7,2.46,14.21,2.59,21.31,3.85,2.22,1.76,1.34,4.27,1.56,6.5-3.51,2.94-7.5,2-11.57,1.75-14.3-.93-28.11-5-42.33-6.32A25,25,0,0,1,16.83,94.33Z"/><path class="cls-15" d="M16.57,161h1.66c2,7.58.29,14.85-1.84,22.09A11,11,0,0,1,12,188c-3.89,1.13-7.3,4.86-11.9,2.24-.15-9.44-.8-18.94,3.21-27.9C7.83,162.71,11.75,157.36,16.57,161Z"/><path class="cls-16" d="M76.76,281.34c0-4.84.06-9.69,0-14.53,0-1.55.33-3.38-1.44-4.29-2.13-1.11-3.51.44-4.91,1.67-.41.35-.77.76-1.16,1.13-12.06,11.1-29.1,12.71-43.29,4-.75-.45-.93-1.82-1.37-2.76.74-1.89,1.65-3.63,3.59-4.57,8.27,6.62,18,12.15,27.69,6.07,10.32-6.46,26.8-10.2,21-29A111.92,111.92,0,0,1,76.76,281.34Z"/><path class="cls-17" d="M73.55,289.51c-9.81.41-19.91-4.6-29.4,1.57-1.07,1.53-2.75,1.56-4.35,1.82-7.82,2.68-17,2.71-21.72,11.35-3-7.15-2-14.29,0-21.44,3.62,1.38,7.41,1.17,11.15,1,12.9-.43,25.76.54,38.64.87C70.76,284.8,75.08,283.92,73.55,289.51Z"/><path class="cls-18" d="M19.6,107.63c3.79-3.38,8-2.06,12.07-.9,13.68,3.89,27.71,5,41.83,5.47l0,6.54c-14.36-3.73-29.18-4.42-43.8-6.42-2.94-.4-5.9-.49-8.7-1.57Z"/><path class="cls-19" d="M73.55,289.51c-.58-4-3.71-3.28-6.28-3.22-15.1.33-30.24-1.06-45.29.72-4.33.51-3.45-2-3.87-4.2a1.65,1.65,0,0,1,.21-1.46c19-1.15,37.87,1.64,56.83,1.65C75,285.25,76,287.8,73.55,289.51Z"/><path class="cls-20" d="M89.83,284.52c1.83-2.68-.57-5.37,0-8a1.23,1.23,0,0,1,1.61,0,1.22,1.22,0,0,1,0,1.6c2.39,5.27,6.93,5.85,11.59,4.5,5.25-1.51,9.86-2.06,14.13,2.28,2.3,2.34,5.64,1.37,8.54,1.38,23.72,0,47.43,0,71.15.07,2.86,0,6-1,8.49,1.39-4,1.73-8,1.14-12,.38C158.79,288.42,124.23,289.05,89.83,284.52Z"/><path class="cls-21" d="M18.08,304.25c-.77-4.87,1.9-7.43,6.13-8.73,5-1.54,10.14-2.9,15.21-4.34,10.57,1.76,21.23.3,31.83.81,3.44.17,6.93-.64,10.3.61l1.55.13c-1.92,3-4.91,1.53-7.38,1.59q-13,.29-25.92.06c-9.82-.16-18.66,2.22-26.18,8.87C22.2,304.5,20.65,308.13,18.08,304.25Z"/><path class="cls-11" d="M14.67,138.1a12.63,12.63,0,0,1,5-5c4.88,1.09,10.42-2.92,14.82,1.89l0,0c4.5,3.28,9.81.56,14.58,1.95,3.25,1,6.92.22,9.86,2.45a2.76,2.76,0,0,1,0,3.72l0,0a37.65,37.65,0,0,1-29.26,0l0,0c-1.44-3-4.32-2.49-6.87-2.78C19.92,140,16.82,140.77,14.67,138.1Z"/><path class="cls-22" d="M43.74,70.07C39.37,58,42.47,51.4,57,42.08l.82.67a54,54,0,0,1-1,10.06c-6.56,3.32-4.32,10.78-7.41,15.73a2.38,2.38,0,0,1-2.21-.26c-.84-1.79,0-3.9-.08-4.18.31.49-.68,2.64-.45,4.7C46,70,45.24,70.9,43.74,70.07Z"/><path class="cls-23" d="M504.79,66.68c-1.17,7.68-5.3,12.74-13,14.64-1-1-2.64-.33-3.54-1.49-.63-1.87-2.43-1.55-3.82-2.08-1.65-.62-3.81-1.16-1.94-3.71,10.14-.88,14.44-7,14.9-16.56a2.46,2.46,0,0,1,1.88-1.07c2.85,1.5,2.33,3.94,1.81,6.4,0,.11.33.39.54.42s.45-.16.72-.25C504.38,63.43,503.57,65.71,504.79,66.68Z"/><path class="cls-24" d="M45.8,89.66c-10,.06-19.28-4.53-29.22-5.07-.38-2.72-.64-5.78,2-7.24,3.2-1.78,4.49,1.86,6.37,3.39,9.49,7.75,20.59,7.89,32,7,.14.43.29.87.44,1.31C53.67,92.68,49.72,91,45.8,89.66Z"/><path class="cls-25" d="M456,284.79l1.67-.62c-.13-8.38-2.22-16.84.93-25.1,4.15-1.72,5.44,1.44,5.61,4.16.44,6.89,2.87,13.44,3.15,20.34-.28,2.91-2.9,3.2-4.83,4.26l-3.32.05Z"/><path class="cls-26" d="M524.46,97.62c-.11-3.22-.23-6.43-.34-9.65-2.49-1.51-3.48-4.78-8.2-1.39-5.6,4-13.25,5.44-20.68,4.82-2-.2-4-.36-5.19-2.39.11-.38.22-.77.34-1.16,10.62.54,20.45-1.15,28.2-9.37,2.9-3.07,5.24-2.42,6.22,1.77C526.16,86.06,527.06,91.88,524.46,97.62Z"/><path class="cls-27" d="M504.79,66.68l-3.12-3.19c-2-1.81.18-4.76-1.79-6.58l-1.8.1c-3.38-1.56-7.26-1.92-10.29-4.31,1.74-2.76,2.48-5.35,2.71-9.44C503,49.17,506.11,54.32,504.79,66.68Z"/><path class="cls-28" d="M1.71,211.86l1-3.76c4.52,5.83,13.86,1.2,18.12,8.65-3.15,2.15-7,1.85-9.84.87-4.24-1.45-5.73.46-7.21,3.5C2.79,218.1,1.2,215.21,1.71,211.86Z"/><path class="cls-29" d="M16.57,161a19.72,19.72,0,0,0-10.32,3.11c-2.46,1.49-2.47-.35-2.91-1.79.32-2.15-.5-4.53,1.33-6.35,2.58-.52,5.14-1.17,7.74-1.53,2.15-.3,4.62-2.58,6.45.37S17.1,158.85,16.57,161Z"/><path class="cls-30" d="M43.74,70.07l2-1.64c.48-1,1.05-1,1.71-.16l1.64,0c3.41.72,5.46,3.65,8.4,5.12,1.58,1,3.51.86,5.18,1.54,4.94,2,2.56,3.86-.18,5.68-2.18,1.38-4.64-.2-6.87.65C49.6,79.77,45.33,76.34,43.74,70.07Z"/><path class="cls-31" d="M10,237.61c7.5-3.2,14.81-2.55,23.48.84-7.16,4.48-14.54.07-20.25,4A5.77,5.77,0,0,1,10,237.61Z"/><path class="cls-32" d="M57,42.08c.42-3.27-1.88-4.51-4.12-6.14-3.83-2.78-6.5-6.37-5.47-11.57,2.06-1-.31-5.16,2.64-4.66,3.42.59,2,4.95,3.81,7.1,1.16,1.49,2.86,2.15,4.46,3a5,5,0,0,1,1.6,1.61c1.45,2.91.74,6.1,1.21,9.14.31,1.5.95,3,.11,4.53-3.17,2.11-2.77-1-3.53-2.41A3,3,0,0,0,57,42.08Z"/><path class="cls-33" d="M34.47,135c-4.73-2.27-10.38,2.67-14.82-1.89l6.23-4.78c2.16.06,4.32.11,6.48.18s4.9-.52,5.76,1.84C39.12,133.05,35.25,133,34.47,135Z"/><path class="cls-34" d="M490.31,39.25l-.14,3c-1.43,3.89-3,7.55-8.08,4a2.84,2.84,0,0,1-.67-2c1.18-1.7,2.83-3.12,3.26-5.29.47-3.19.48-6.31-1.33-9.18a4,4,0,0,1,0-3.51c4.5-3.21,7.25-1.73,8.72,3.23A11.37,11.37,0,0,1,490.31,39.25Z"/><path class="cls-35" d="M14.67,138.1c4,.05,8,.2,12,.12s4.66,1.65,2.89,4.89c-3.73,0-7.45,0-11.17,0-2.6.05-4.84-.28-5.23-3.48Z"/><path class="cls-36" d="M223.27,287.88c14.77,0,29.55,0,44.32.06,2.59,0,5.43-.85,7.67,1.34-17.32.3-34.65,1.54-52,.14-.54-.34-.72-.68-.55-1S223.09,287.88,223.27,287.88Z"/><path class="cls-37" d="M.13,190.24c4.15,0,7.24-3.86,11.58-3.24,1.67-1.1,3.52-1.5,4.9.13s.58,3.4-.72,4.87c-4,2.94-8.63,3.8-13.41,4.26a4.58,4.58,0,0,1-2.29-1.07Z"/><path class="cls-38" d="M482.06,45.55c3.85,1.76,6.08-.5,8.11-3.26a.74.74,0,0,1,.33,1c2.82,4.12.08,7.18-2,10.39a3.82,3.82,0,0,1-3.42,1.11,9.47,9.47,0,0,1-5.64-4.83C479.28,47.85,478.61,45.48,482.06,45.55Z"/><path class="cls-39" d="M52.72,29.06c-3.34-1.87-1.28-5.35-2.43-8l-2.91,3.35c-.57-6.43,1.79-11,8.2-13.09.62,2,1.23,4.06,1.85,6.09C55.17,21,54.9,25.41,52.72,29.06Z"/><path class="cls-40" d="M.19,195.19H1.94c3.42,3.25,7.4,2.09,11.45,1.85,2.4-.14,7.39-2.18,5.83,4.07l-1,.59c-6,1.57-11.91,3-17.87,0Z"/><path class="cls-41" d="M490.31,39.25l0-8.59c3.13-2.44,2-6.84,4.39-9.62,2.73-.63,3.44,1.44,3.15,3.16-.4,2.34,1.22,1.41,2.05,1.8C500.37,33.06,494.75,35.73,490.31,39.25Z"/><path class="cls-42" d="M481.87,11.25,484,10c2.15,1.43,4.2-.28,6.3-.19q1.58,1.68,3.13,3.37c3.87,3,.82,3.94-1.52,5.1-2.95.83-5.9,1.82-8.89.12-2.36-2.08-2.86-4.45-1.16-7.19Z"/><path class="cls-43" d="M491.53,16.46c2.21-.22,3.19-1.13,1.87-3.33,6.88,1.91,6.92,7.28,6.53,12.87-1.2.27-3.3,4.67-3.25-.71,0-1.57-.06-3.12-1.49-4.18C492.71,20.56,491.26,19.19,491.53,16.46Z"/><path class="cls-44" d="M329.11,284.7c.26-1.1-4.29-3.08.28-3.23,10.16-.32,20.34-.1,30.51.37-9.62,2.84-19.76-1.13-29.24,2.8l-.77.27Z"/><path class="cls-45" d="M488.57,79.65c1.3.12,2.57.29,3.22,1.67-2.17,1.81-1.19,4.3-1.4,6.53l-.62-.13c-1.74,1.88-3.74,1.85-5.87.8-2.21-1.82.18-5-2-6.81l0-.31C483.15,77,485.81,78.13,488.57,79.65Z"/><path class="cls-46" d="M223.27,287.88c0,.51,0,1,0,1.54-10,.08-20,.44-29.92-1.35l12-.38Z"/><path class="cls-47" d="M55.67,81.28C57.39,78.91,60,80,62.24,79.59c1.85-.57,4-2.13,4.59,1.41a2.45,2.45,0,0,1-1.19.6c-2.75,1.51,1.25,7.32-4.44,7-2.7-.89-1.91-4.25-4-5.59Z"/><path class="cls-48" d="M21.61,113.62c2.39,2.8,4.75,5.61,7.16,8.38,3,3.45.8,4.47-2.32,5.1C28.72,121.21,21,118.91,21.61,113.62Z"/><path class="cls-49" d="M57.22,83c3.28.13,3.33,2.46,3.3,4.84a2.06,2.06,0,0,1-3.07,0l-.56-.07Z"/><path class="cls-50" d="M143.52,99.3c39,.65,78-4.24,117-2.79q55.72,2.05,111.43.62c22.48-.6,45-1.48,67.46-1.31,4.78-1.27,9.62-.51,14.44-.47a1.92,1.92,0,0,1,.62,2.43c-3.47,2.84-7.66,2-11.63,2.14-16.13.42-32.31-.82-48.71.93,3.5,2.68,10.17-1.73,10.88,5.62-9.27,2.7-18.58,2.2-27.91.45-3.18-2.84-6.91-3.74-11.17-3.73-27.07.09-54.13.14-81.2,0-4.8,0-7.75,1.15-7.94,6.37a31.25,31.25,0,0,1-22.35-.14c-.85-4.48-3.33-6.87-8.13-6.34-7.61.83-16-2.69-22.56,4.07-6.33.71-12.8,2.77-18.61-1.74.78-3.13-1.28-2.4-3.11-2.37-15.92.19-31.85.08-47.78.06-3.47,0-7.06.53-10.28-1.44A1.66,1.66,0,0,1,143.52,99.3Z"/><path class="cls-51" d="M57.45,87.8h3.07c4.82.49,1.66-5.58,5.12-6.21-1.29,5.1,1,6.57,5.86,6.51,3.76,0,8-1.91,11.33,1.44-5.77-.21-12-1-11,8-8.9-1.94-18.35-2.09-26.08-7.9C49.63,88.72,54,91,57.45,87.8Z"/><path class="cls-52" d="M143.52,99.3v1.53c-2.56,2.75-6,2.13-9.14,2.19-11.64.21-23.27,0-34.9.22-1.38,0-5.41-1.78-3.79,2.87,3.66,5.24-4.35,2.41-3.8,5.55A12,12,0,0,0,92,123.14a4.25,4.25,0,0,1-.2,2.26c-1.45,1.46-3,2.48-5.16,1.39-.84-9.66,1-19.53-2.08-29,8-2.83,15.85.82,23.81.79,10.66-.06,21.35-1,32,.62Z"/><path class="cls-53" d="M454.55,96.23l-15.11-.41c3.51-2.1,7.39-.91,11.1-1.24,3.12-.27,5.41-.27,7.9-3.71,4.16-5.76,11.46-2.26,17.36-2.61,4.83-.28,7.21-1.42,6.11-6.55,3,1.17,1.68,3.79,2,5.86-.5,4.81-4.49,3.89-7.21,3.79-5.1-.18-6.48,2.47-6.56,6.77a4.62,4.62,0,0,1-1.41,1.89,10.6,10.6,0,0,1-11.47-1.49A34.82,34.82,0,0,1,454.55,96.23Z"/><path class="cls-54" d="M488.57,79.65c-2.28.32-4.92-.76-6.62,1.75-6.79-1.85-11.58-5.71-13-12.93-.83-1.18-.5-2.55-.71-3.84-.88-5.46,1.29-6.72,6.08-4.54,1.84,5.34,5.45,9.77,7.72,14.89,1.77,2.14,4.27,1.16,6.46,1.56C492.74,77.32,488.22,78.61,488.57,79.65Z"/><path class="cls-55" d="M66.83,81c-1.19-1.59-3-1.22-4.59-1.4-.17-1,4.11-2.45-.25-3.07-2.2-.31-4.71.6-6.34-1.74,5.6-2.88,12.73-3,16.49-9.19,3.15-1.48,4.06-5,6.38-7.19C81.36,68.62,77.39,76.31,66.83,81Z"/><path class="cls-56" d="M474.06,60.26c-6,.07-5.13,4.4-5.14,8.21-3.51-11.72.77-20.12,13.18-25.9a1,1,0,0,1,.46,1c-.11.37-.22.55-.35.55l-.15,1.41c-2.15,1.31-1.62,3.41-1.56,5.37a2.09,2.09,0,0,1-.11,2C477.73,54.87,478.36,59.68,474.06,60.26Z"/><path class="cls-57" d="M78.52,58.41c.2,4.1-.73,7.44-5.54,8.15-1.84-6-3.27-12.44-11.35-13.09a3.43,3.43,0,0,1,.22-3.39c2.38-1.87,5.27-2.11,8.1-2.57a5.55,5.55,0,0,1,3.38,1.34C76.3,51.36,78.38,54.36,78.52,58.41Z"/><path class="cls-50" d="M140.38,99.17c-18.61.22-37.22.3-55.79-1.41-.42,0-.84,0-1.26.08,0-.67,0-1.34.08-2,16.13.65,32.26,1.24,48.39,2C134.68,97.92,137.78,97.16,140.38,99.17Z"/><path class="cls-58" d="M480.29,37.46c-5.48-4.22-9.8-8.91-6.82-16.61,1.71-.81,2.93.08,4.08,1.19,1.57,2.42,1.94,5.51,4.22,7.55,1.51,1.67,3.61,2.85,4.23,5.23.07,1.23,0,2.41-1,3.29A4.54,4.54,0,0,1,480.29,37.46Z"/><path class="cls-59" d="M60.5,45.53l0-4.82c-2.25-3,.81-6.93-1.77-9.87-.53,0-1.07,0-1.6,0-.64-6.44.29-7,6.91-4.19,2.76,3.74,3.3,7.52.12,11.33-.62,1.44-2.46,2.76-.47,4.47a1.36,1.36,0,0,1,.6,1.15c0,.46-.07.69-.17.69C63.18,45.46,62.12,46.34,60.5,45.53Z"/><path class="cls-60" d="M64.19,38c1.91-3.42-1-6.58-.57-9.92,2.07-.88,4.19-1.62,6.21-2.63,1.62,0,2.58,1.13,3.62,2.12C73,33.43,69.71,36.69,64.19,38Z"/><path class="cls-61" d="M477.28,22.78l-3.81-1.93c1.14-4.64,3.17-8.52,8.36-9.69-.19,2.4.82,4.44,1.94,6.45C482.2,20.08,480.83,22.8,477.28,22.78Z"/><path class="cls-62" d="M58.56,18.15c3.11-1.48,8-1.11,6.9-6.86,3.45.93,6.23,2.53,6.51,6.59-2.18-.88-3,.51-3.61,2.19C64.94,20.2,61,23,58.56,18.15Z"/><path class="cls-63" d="M68.65,19.53c.06-2.65,1.42-2.68,3.32-1.65.42,3.24,3.26,6.12,1.48,9.7A3.72,3.72,0,0,1,70,25.77C68,24,66.73,22.13,68.65,19.53Z"/><path class="cls-32" d="M63.59,44c0-.52.06-1,.13-1.54,3.27,2,7.46,2.66,9.61,6.37l-3-.06C67.64,47.78,63.31,49.12,63.59,44Z"/><path class="cls-64" d="M480.29,37.46l4.93-.1c1.24.74.54,2.45,1.62,3.26l-4.63,3.52a7.5,7.5,0,0,1-.11-1.57C483,40.35,481.4,39,480.29,37.46Z"/><path class="cls-65" d="M65.48,11.35c-3.81-2.06-4.69-4.69-1.59-8.11Z"/><path class="cls-66" d="M45.87,211.44c-4.21,0-8.06.39-12.2,2.36-8.65,4.14-16.26-2.2-15.46-12.11h0c4.54-3,9.66-4.42,14.91-5.42,12.19-2.34,15.8,1.41,13.72,14.15C46.52,210.75,46.2,211.1,45.87,211.44Z"/><path class="cls-67" d="M41.44,216.3c3.13-.06,6.09-.06,6.06,4.38,0,3.5-.35,6.61-4.79,6.95a22.52,22.52,0,0,0-11.29,3.77c-2.61,1.79-4.89.06-6.48-1.52-2.58-2.56-3-6.32-2.48-9.65.37-2.4,3.33-2.5,5.47-2.23C32.61,218.59,36.89,216.38,41.44,216.3Z"/><path class="cls-68" d="M40.11,242.51c5.78,1.44,11.55,1.83,7.79,9.31-.57,1.12-.22,2.67-.42,4-.66,4.45-2,11.52-5.36,11.14-5.17-.6-2.15-7.19-2.67-11.17-.39-2.93-.36-5.69-2.07-8.46C34.69,243,37.6,242.28,40.11,242.51Z"/><path class="cls-69" d="M76.82,234.22c0,1.61,0,3.23,0,4.84-6.4.22-12.88-.8-18.94,2.69a6.09,6.09,0,0,1-7.51-1,2.22,2.22,0,0,1-.21-2.94c1.69-2.41,4.28-1.88,6.65-1.93C63.52,235.69,70.29,236.52,76.82,234.22Z"/><path class="cls-70" d="M76.78,224.44q0,3.26,0,6.49a42.48,42.48,0,0,0-14.41-1.62,60.41,60.41,0,0,1-13.51-.85C57.9,224.64,67.3,224.23,76.78,224.44Z"/><path class="cls-71" d="M76.83,209.82l0,6.46c-9-.72-18-2.28-27.19-1.62-2.22.16-3.52-1-3.8-3.22h0C56,207.09,66.44,208.92,76.83,209.82Z"/><path class="cls-15" d="M457.56,96c3,4.07,7.36,3.12,11.45,3.18,3.72,3.27,7.85,3.76,12.66,2.64,8.81-2,17.86-2.87,26.3-6.79,3.87-1.79,8.6-3.17,13.1-.71.53,6.34-2.06,10.75-8.1,13-4.62,2.94-10.23,2.39-15.08,4.06,2,3.2,9.59-2.45,8.5,5.61-2.88,1.3-3.29,3.84-3.29,6.58-3.19,1.17-5.05-1.08-7-2.84s-4.45-3.17-7.29-3c-4,.21-9.6-.25-9.79,4.79-.22,5.63,5.56,3.42,8.9,3.79,5.13.57,10.24-.26,15.31-1.12l1.56.1c1.22,2.51,1.21,5.21,1.28,7.9-1.92,4.74-6.17,3-9.63,3.42-5.82.79-12.27-2.14-17.39,2.87-1.85,2.49-4.73,2.14-7.49,2.68,3.5.84,5.88-.7,7.93-3.07,6-4.35,12.95-1.84,19.46-2.42,3.39-.3,7.13.61,8.86-3.62a2.92,2.92,0,0,1,3.46.35c1.46,2.59,5.13.63,6.61,3.19-.88,6.54,5.39,4.35,8,6.59,2.52,2.79,3.56,6.34,5,9.7-.28,5.12-5.57.7-7.17,4,2.05,3.1,7.34,1.72,8.82,5.73,3.25,8,1,16.25,1.58,24.38-3.38,3.69-10.18-1.49-12.55,4.83-6.5,2.53-12.25-1.17-18.34-2.17-2.54-.41-7-3.05-5.85,3.41a5,5,0,0,1-.16,2.22A18.89,18.89,0,0,1,491.7,201c-3.65,1.47-6.69-1.07-10.05-1.51-1.89-.25-3.87-.23-5,1.64-1,1.7.36,2.92,1.18,4.27,1.34,2.22,4.87,4.08,1.45,7.29a17.6,17.6,0,0,1-11.51,0,6.76,6.76,0,0,1-2.94-2.66,22,22,0,0,1,1-16.43c6.16-3.36,12.42-1.16,16.11-.69-3.92-.19-10.52-3.29-16.75,1.35a5.37,5.37,0,0,1-5.93-.05,4.51,4.51,0,0,1-1-4.59c5.13-3.18,3.28-6.32-.1-9.44a6.79,6.79,0,0,1,.22-5.63c4.06-1.73,7.62-3.89,7.49-9.09,4.69-3.06,10.38-2.45,15.77-4.18-11.62.68-13.25,1.27-17.25,6.14-1.71,1.71-3.55,1.7-5.49.42a5.11,5.11,0,0,1-.69-4.65c7.3-8.66,7.41-10.63.91-16.17-1.67-1.87-1.91-4.26-2.41-6.56a10,10,0,0,1,0-2.38c.47-2.29.74-4.66,2.17-6.64,6.43-5.67,6.43-7.17,0-12.45a4.19,4.19,0,0,1-.35-3.32c1.44-3.34,5.38-3.27,8.1-6-2.69-3.22-8.19-.76-10.16-4.83A8.28,8.28,0,0,1,457.56,96Z"/><path class="cls-9" d="M480.4,211.43c-1.16-1.43-2.43-2.79-3.47-4.31-1.49-2.18-5.93-3.54-3.4-6.93a7.91,7.91,0,0,1,10-2.58c2.66,1.18,5.17,2.78,8.27,2.45.83,7,4.38,10.27,11.8,9.94,3.87-.18,7.74,1.71,11.72,2.22,4.65,0,9.49-3.07,13.9.84a33.86,33.86,0,0,1-9.82,24.35c-2.47,2-4.56.5-6.64-.76-6-3.66-6-3.68-10.77,2.55,2.57,2.23,5.14-.1,7.66,0s6.13-1.46,6.64,3.14c-3.25,5.47-9.08,8.31-13.13,13-1.59,2.48-.69,5.24-.76,7.86-.19,7.86-1.1,8.8-8.72,8.85a21.74,21.74,0,0,1-13.44-4.77c-3.61-2.67-6.85-6-12-7.37,2.94,2.19,5.9,3.4,8.22,5.55,6.29,5.85,13.44,8.81,22.17,6.51a6.76,6.76,0,0,1,6.11,1.29,17.63,17.63,0,0,1,6.55,6.48c-.42,3.8-3.56,3.71-6.08,3.84-13.15.66-26.3,1.79-39.49,1-1.09-7.24-4.36-14.12-3.39-21.72.25-2-1.28-3.37-3-4.27a3.47,3.47,0,0,1-.8-3.46c2.06-5.53,4-10.94,1.91-17.09-1.27-3.74.54-5.71,4.71-4.42,1.44,3.68,4.47,3.91,7.85,3.87,4.52-.05,9.07.15,13.12,2.61.16.1.14.5.2.76l.3-.91c-3.34-3-7.73-2-11.7-2.52-3.05-.39-6.56.95-8.75-2.48-1-1.73-2.95-3.06-2.44-5.47a4.23,4.23,0,0,1,1.93-1.56c6.66-2.21,14,1.19,20.47-2.55a10.52,10.52,0,0,1,2.19-.87c3.83-.87,7.47.1,11.14,1.08s7.19.32,7.85-3.46c.83-4.73-3.67-3.5-6.25-3.76a40.4,40.4,0,0,1-12.55-2.9C486.18,213.42,482.54,213.91,480.4,211.43Z"/><path class="cls-72" d="M521.07,94.35c-14.6,2.74-28.36,8.71-43.25,10.61-5.83.75-8.06-.45-8.81-5.75h0c5.76-5.53,13.75-5.5,20.67-8.1,1.67-.62,3.72-.46,5.41-1.43,9.78-.7,19.66-1.17,26.57-11,1,3.38,0,6.93,2.46,9.32A9.35,9.35,0,0,0,521.07,94.35Z"/><path class="cls-66" d="M503.22,125.2c-3.77,3.17-22.47,4.83-25.78,2.28s-2.19-8.7,2.48-10.29c6.58-2.25,13.51-4.46,18.65,3.26.95,1.43,3,2.13,4.54,3.16C503.15,124.14,503.19,124.67,503.22,125.2Z"/><path class="cls-73" d="M465.76,284.62a289,289,0,0,1,36.46-3.29c3.07-.1,6.48,1.21,9.11-1.58,3.36,1.73,5.07,5.72,3.32,7.84-2.91,3.52-7.57,2.77-11.52.35a8.26,8.26,0,0,1,6.27-.72c-2.67-.07-6.83-.86-11,.63-12,1.26-23.91-4-35.87,0Z"/><path class="cls-74" d="M504.78,273.27c-19.48,1.31-30.48-2.72-42.08-16.25a21.47,21.47,0,0,1,13.68,4.64c5.27,3.88,9.85,9.08,17.71,8.54,5.29-.36,8.19-1.25,7.55-7.25-.27-2.53-1-5.47,1.51-7.6C503.69,261.32,501.85,267.51,504.78,273.27Z"/><path class="cls-75" d="M516.28,242.38c-4-3.95-8-.06-12,0-2,.05-4.36,1.73-5.46-1.3-1-2.63-.38-4.69,2.72-5.5a4.92,4.92,0,0,0,3.2-3.3c1.87-4.59,4.4-3.12,6.25-.22a11.12,11.12,0,0,0,8.45,5.31Z"/><path class="cls-76" d="M529.21,213.06c-5-.8-9.75,1.32-14.67,1.59a16.4,16.4,0,0,1,3.69-14.73c2.5-.34,4.77.78,7.17,1.09,5.46.7,7.77,3.34,5.49,8.84C530.83,211.18,530.57,212.41,529.21,213.06Z"/><path class="cls-77" d="M506.39,117c-2.1-5.18-7.1-.81-10.22-3.07-1.09-.79-3.61.15-3.53-2.19.07-1.85,1.82-2.67,3.51-2.65,5.68,0,11.06-2.7,16.82-1.76Z"/><path class="cls-78" d="M532.5,162.64a16.84,16.84,0,0,0-7-1.75c-2.88-.25-5.67-1.89-5.34-4.91.38-3.57,3.63-3.34,6.36-2.62,1.57.41,3,1.33,4.28-.47C533.76,155.74,532,159.39,532.5,162.64Z"/><path class="cls-79" d="M521.1,191.91c-.38-5,.91-7.84,6.76-5.67,1.91.7,4.14.54,6.22.78-.68,4.33,1.66,9-1.59,13l-.83-.74c-.93-5.68-6-5.13-9.82-6.58C521.59,192.47,521.34,192.19,521.1,191.91Z"/><path class="cls-80" d="M530.89,209.85c.5-4.61-1.06-7.35-6.2-6.53-3.11.5-5-1.38-6.87-3.25l-.63-1.1c-.08-2.86,1.93-3.47,4.14-3.87,4.35.11,8.53.63,11.07,4.86l.09.1C532,203.32,533.76,207,530.89,209.85Z"/><path class="cls-81" d="M525.9,143.19c-2.09,0-4.19,0-6.28-.07-2.32-.06-5.19.3-5.85-2.64s3.45-1.77,4.1-3.88Z"/><path class="cls-77" d="M504.81,133.37l0-8.07c2,2.84,3.41,6.13,6.48,8.11l-3.2,0A2.15,2.15,0,0,1,504.81,133.37Z"/><path class="cls-82" d="M498.35,287.85c4.07-3.18,8.55-1,14.17-1.7-3.79,2.67-6.72,1.29-9.39,1.78Z"/><path class="cls-83" d="M140.25,281.4l-3.24,0c-6.36-2.3-13.15.57-19.53-1.62h0c0-3.86,3.39-3.81,5.68-4.32,7.52-1.67,15-3.59,22.7-4.33a46.54,46.54,0,0,0,9.2-.63,10.6,10.6,0,0,1,2.7.1c14.79-.13,29.07,4,43.69,5.26,14.74,1.67,29.58,3.42,44.32,2.87,18.54-.69,37.17-1,55.59-4,7.44-1.19,15.11,0,22.59-1.58,1.77-.38,4.48.06,4.77,2.09.49,3.35-3.41,1.21-4.58,2.84-9.38-.53-18.21,2.52-26.8,5.3-14.4,4.65-29,3-43.38,2.43-7.19-.29-14.47-1.11-21.72-1.13-15-.06-30-2.67-45.06-.1-8.61,1.47-17.1-2.09-25.75-1.55C154.51,280.65,147.18,283.63,140.25,281.4Z"/><path class="cls-84" d="M459.28,255.34c0,1.1,0,2.2.05,3.29-1.24,8.47,1.95,17.24-1.71,25.54,0-.4,0-.79,0-1.19-2.14-2.24-2.07-5.3-3-8-.82-3.15-.51-6.48-1.58-9.59a19.2,19.2,0,0,1-.62-3.61c-.15-2-.12-4-.12-6.05,0-1.58,0-3.15.17-4.72a18.13,18.13,0,0,1,.59-3.34c1.53-3.46.5-7,.12-10.47a11.71,11.71,0,0,1,.27-2.13c.77-2.81.32-4.84-3.17-5-11.57-.35-23.14.78-34.67-.66-3.3-1.14-6.74-1-10.15-1.25-2.7-.23-6.1.28-6.69-3.83,3-4.12,7.49-3.69,11.75-3.77,13.19-.25,26.38.32,39.54-.32a4.44,4.44,0,0,0,2.54-2.31c.28-.71.6-1.41.89-2.11a104.92,104.92,0,0,0,0-21c-.06-.39-.1-.78-.16-1.17s0-.78,0-1.18.08-.77.11-1.16a62.89,62.89,0,0,0,.18-17.06A14.3,14.3,0,0,1,453,172a11.86,11.86,0,0,1,.21-4.52c.91-2.85.79-5.86,1.27-8.78a21.32,21.32,0,0,1,.5-2.24c.8-2.71.46-5.49.46-8.25.15-3-.42-6.18,2.23-8.51,2.12,1.84,1.29,4.37,1.54,6.64,3.69,5.4,3,10.82.06,16.24l0,4.92a4.75,4.75,0,0,1,0,6.51v6.49c1.79,2.72,2.26,5.43,0,8.15l0,4.88c4,5.75,1.89,12.25,2.25,18.44,0,1.43,0,2.85,0,4.28.08,3.3,0,6.6,0,9.9,0,1.46,0,2.92-.07,4.38-2.82,5.9,1.33,12-.45,18C460.32,250.75,461,253.34,459.28,255.34Z"/><path class="cls-85" d="M324.14,278.05l4.5-3.14c-43.53,3.73-85.73,9.23-128.15,3.21,1.14-5.27,5.74-3.05,8.83-4.11,21.93-.15,43.87.37,65.79-.2,19.72-.52,39.29-4.34,59.12-2.9,2,.17,4.08.33,5.84,1.55a2.74,2.74,0,0,1,.36,4Z"/><path class="cls-86" d="M340.43,276.47c0-1.07,0-2.15,0-3.22,4.31-3.37,9.62-3.6,14.57-3.68,22.38-.33,44.78-.72,67.16,0,5.62.18,11.17,1.79,16.8,2.25,4.14.33,8.5,1.88,12.42-1,.61-1.18.82-2.52,1.35-3.73a4.94,4.94,0,0,1,1.66-2c2.87,2.9,1.07,6.58,1.64,9.86a3.87,3.87,0,0,1-3,4.49c-12.8-.48-25.57-1.05-38.36-2.3-10.51-1-21.22-2.81-31.88-.69Z"/><path class="cls-87" d="M382.83,276.45c9.61-3.43,19.77-2.41,29.24-1.12,14.11,1.92,28.4-.61,42.32,2.79,1.11-.24,2,.08,2.16,1.26.19,1.48-.5,2.32-2.12,2.13l-6.72.06c-6.45.77-12.89,1.33-19.31-.28-4.77-2.75-10.29-2.18-15.4-2.87C403,277.06,392.9,277,382.83,276.45Z"/><path class="cls-78" d="M156.53,271.63h-1.61c-2.45,1.89-5.71-.37-8.14,1.6-9.91,1.56-20,2.42-29.3,6.52-8.72.17-17.24-2.67-26-1.68,0-.51-.06-1-.08-1.52l1-1c18.38-2.35,36.74-4.91,55.06-7.86,6.31.84,13.25-1.89,19.85,3.24A12.72,12.72,0,0,1,156.53,271.63Z"/><path class="cls-88" d="M428.4,281.29l19.31.28c-10,3.27-20.25.43-30.48-.28Z"/><path class="cls-78" d="M140.25,281.4c7,.84,14.34-1.91,21.18,1.6C154.39,282.17,147.09,284.85,140.25,281.4Z"/><path class="cls-78" d="M117.48,279.76c6.49.78,13.25-1.73,19.53,1.62C130.52,280.62,123.76,283.1,117.48,279.76Z"/><path class="cls-88" d="M454.43,281.51c1.5-1.15,1.64-2.28,0-3.39L456,275c2.65,2.26,1.18,5.33,1.56,8A3.27,3.27,0,0,1,454.43,281.51Z"/><path class="cls-89" d="M76.83,209.82c-10.17,3.45-20.65.76-31,1.62-.31-15-1.89-16.22-16-12.27-3.84,1.08-7.48,3-11.65,2.51-.26-7.15-4.57-2.08-7-2.18-3.79-.16-9,3.26-9.27-4.32a46.41,46.41,0,0,1,13-3.27l1.13.54c2.77,3.16,6,1.47,9.05.73,6.64-1.63,13.28-2.49,20.06-.9,4.83,1,9.56.53,14.41-.28,5.22-.87,10.71-2.05,15.59,1.54C78,198.74,76.46,204.38,76.83,209.82Z"/><path class="cls-90" d="M75.18,193.54A116.6,116.6,0,0,0,53.43,195c-3,.42-6.53,1.35-9.2-1.48l.42-1.08c4.21-4.16,9.88-1.8,14.69-3.3,3.31-1,7-.22,10.1-3-8-.07-15.95,2.2-24,1.85a3.54,3.54,0,0,1-2-1.44,5.21,5.21,0,0,1,.83-6.06c7.62-3.34,15.92-1.09,23.85-2.95,4.71-1.1,5.48-2.86,5.51-6.87s-.72-6.56-5.7-6.57c-4.67,0-13.29-1.6-12.41-3.91,1.88-5,8.14-.58,12.29,0,4.7.64,5.82-.37,5.81-4.62,0-2.58-.94-5.47,1.54-7.59Q75.17,170.78,75.18,193.54Z"/><path class="cls-91" d="M60.54,135c-1.7-3.12-1.32-5,2.78-4.88,3.95.1,7.91,0,11.87,0q0,3.26,0,6.51C69.86,139.67,65.14,137.89,60.54,135Z"/><path class="cls-90" d="M58.9,143.12v-3.25a5.63,5.63,0,0,1,2.37-1.62c4.82-.95,9.51-.75,13.94,1.64l-.09,4.9C69.56,145.68,64.38,142.92,58.9,143.12Z"/><path class="cls-92" d="M81.55,292.6c-11.8,0-23.59.11-35.39.09-2.32,0-4.89.75-6.74-1.51l4.73-.1c9.93,0,19.86,0,29.79.1C76.52,291.22,79.37,290.26,81.55,292.6Z"/><path class="cls-93" d="M75.2,139.89l-14.7-.06a12.41,12.41,0,0,1,0-4.82l0,0,14.6,1.67Z"/><path class="cls-91" d="M75.19,130.13c0-3.24,0-6.47-.08-9.71C77.71,123.64,77.56,126.88,75.19,130.13Z"/><path class="cls-94" d="M15,183.79Q16.6,172.4,18.23,161c9.23-3.17,18.71-1.72,28-1.07,4.47.32,6.64,3.18,3.54,7.95-2.63,4.05-4.82,8.4-7.2,12.62-7.91,4.42-17,3.51-25.46,5.67C15.91,186.52,14.61,185.59,15,183.79Z"/><path class="cls-67" d="M29.61,143.15H58.87c-.26,2.39-1,4.86-.67,7.15,1,6.15-3.06,6.23-6.88,5.72-8.72-1.16-17.31-3.24-26.19-3.2-3.05,0-3.55-1.29-2.06-4.1S27.49,145.06,29.61,143.15Z"/><path class="cls-95" d="M15,183.79c5.77,1.27,10.91-2.13,16.61-2.28,3.57-.09,7.33-.88,11.05-1h1.64c0,2.16,0,4.33,0,6.49C35,191.44,25.45,194.53,15,192l0,0c2.26-3.83.66-5.13-3.23-4.9Z"/><path class="cls-96" d="M88.36,216.2c0-2.11,0-4.21,0-6.31a7.12,7.12,0,0,1,5.89-2.2c14.26,1.4,27.59-4.21,41.52-5.49,8.66-.81,17.08-.16,25.65,0,21.75.38,43.66,2.69,65.26-2.13,2.64-.59,5.39-.39,8-1.28,9.26-2.61,18.8-3.82,28.57-4.64-1-3-3.18-2.9-4.88-3.15-12-1.77-23.79-4.29-35-9.3a24.89,24.89,0,0,0-11.88-2.1c-21.41-.05-42.81.17-64.21-.07-17.85-.2-35.35-4.54-53.21-5a7,7,0,0,1-6-3.7l0,0a6.25,6.25,0,0,1-.75-3.88c.11-10.92.5-11.32,11.3-11.39,5.12,0,10.24,0,15.36,0,4.77.14,9.53-.17,14.3,0,5.87-.24,11.85,1.09,17.59-1.18,10-1.79,19.8.14,29.67,1.21.91,0,1.81,0,2.72,0,5.45.14,10.91-.05,16.36.14a19.42,19.42,0,0,1,4.09.6c2.62.93,5.45,1.2,8,2.41,8.17,3,16.88,4,25.33,4.63,23.74,1.63,47,5.7,70.24,10.6,12.2,2.58,24.6,2.61,37,2.73,22.14.2,44.22-.23,66.19-3.18,3.62-.09,7.28.48,10.83-.78a15.16,15.16,0,0,1,2.75-.6c7.42-.35,14.82-.46,22.22-1.64,4.29-.68,9.08-1.27,13,2v0a50.23,50.23,0,0,1,0,19.51h0c-7.78,2.28-15.56,0-23.34-.07-35.73-.29-71.45.42-107.16,1.62a74.85,74.85,0,0,1-25.65-3.12c-8.72-2.7-17.41-5.53-25.86-9-35.09-6.44-70.24-12.32-106.12-11.36-18.63.5-37.13-1-50.94-2.45,11.65.87,27.91,3.18,44.37,2.53,37.53-1.5,74.33,4.45,111.08,10.85,7.77,2.81,15.34,6.2,23.43,8.11,19.68,6.9,39.91,4.54,60.06,3.64,28.58-1.26,57.17-1.11,85.74,0,4.78.19,9.7-.84,14.38,1h0a76.57,76.57,0,0,1,0,24.36h0c-5.81,4.09-12.43,1.68-18.68,2.25-2.91.26-5.87.07-8.8.07-33.28.6-66.29-2.21-99.36-6-27.09-3.07-54.47-4.8-81.81-3.55-14.84.69-29.25,4.88-43.95,6.88a165.72,165.72,0,0,1-36.43.53,252.7,252.7,0,0,0-48.5.07,103.57,103.57,0,0,1-25.91-.27A8.89,8.89,0,0,1,88.36,216.2Z"/><path class="cls-97" d="M88.23,182.16c0-1.63,0-3.25,0-4.87,4.23-3.46,9.19-2.54,13.94-2.08,23.23,2.28,46.45,4.53,69.83,3.71,4.6,0,9.22.31,13.79-.06,19.4-1.57,38.08,1,56,8.91,5,2.2,11.61-.93,16.24,5.52-8.79,4.05-18.28,3.94-27,6.6-16.52,2.83-33.18,4.4-49.88,3.3-26.65-1.75-53-.72-79.13,5.26a32.07,32.07,0,0,1-12,.15c-2.06-11.2-.44-13.58,10.26-15.38,11.27-1.9,22.44-1.52,33.85-.64,15.89,1.24,31.93,0,45.56.21-11.09,1.49-24-2.57-37.17-4-12.92-1.37-25.95-.15-38.78-2.58C98.38,185.26,92.83,185.58,88.23,182.16Z"/><path class="cls-98" d="M114.28,157.68c-5.42,0-10.94.72-16.24-.07-7.74-1.17-9.73,2.66-9.81,9.13,0,1.35,0,2.71-.08,4.06-3.12-12.37-.94-25-1.45-37.44,7.46-1.48,15-.25,22.5-.57a33.26,33.26,0,0,0,8.77-1.21c20.81-1.31,40.83-7.58,61.63-9.5s41.51.67,62.23,1.63c14.53.68,28.78,4.41,43.41,4.11,19.1.35,38.15,2,57.09,2.33-2.66-.4-5.85.73-8.56-2.52,2.38-3.24,5.88-3,9.16-3,13.81-.19,27.63.16,41.44-.21,20.66-.11,41.23,1.35,61.79,3,2.66.21,5.38.36,7.74,1.87a3.35,3.35,0,0,1,1,3.88c-8,3.66-16.6,2.35-24.62,1.35-8.54-1.06-17.18-.65-23.72-2,14.7.51,31.18,3.84,47.92,2.19,4.15,3.09,1.55,5.46-.83,7.87a158.46,158.46,0,0,1-25-.65c-39.29-4.24-78.67-7.36-118.16-5.8-24.19,1-48-1.45-71.82-4.15-5.62-2.06-11.47-.8-17.21-1.17-18.92-.39-37.63.41-56.37,4.14-20.66,4.12-41.82,4.52-62.92,4.21-4-.06-9-1.51-11,4.13-.07,1.63-.26,3.25-.35,4.87,1.83,4.53,6.12,3.52,9.57,4.09,3.92.65,8-.35,11.9,1.25C113.84,154.48,114.85,155.71,114.28,157.68Z"/><path class="cls-99" d="M88.36,216.2a10.87,10.87,0,0,0,1.41.18,10.32,10.32,0,0,1,2,2.42c.81,1.55,2.28,1.69,3.81,1.76,11.77,0,23.51.06,35.26-.08,11.63-1,23.12,1.08,34.69,1.54,13.76.55,27.4-.9,41.09-1.5,15.36-.46,30.75.58,46.08-1.54a58.17,58.17,0,0,1,20.15.9c15.7,3.41,31.08,1.61,46.37-2.43,12.1.31,24.27-1.46,36.3,1.18a137.41,137.41,0,0,0,32.78,3.63c3.66-.09,7.64-.89,10.73,2.18,4.8,4.21,11.46-.9,16.28,3.23-2.26,2.43-5.3,2.62-8.23,2.53-27.2-.9-54.31,2-81.48,1.68-4,0-8.2.63-11.31-2.86,2.23-4.77,6.77-3.28,10.44-3.6,9.86-.87,19.73,1.13,29.61.54-13,.35-26.11-2-39.14.08-2,.32-5-1.53-4.89,2.67a26.22,26.22,0,0,1-11.81,2.74c-21.12.5-42.27,1.3-63.38-.51-3.51-.31-7-.66-10.54-.67-40.92-.07-81.85-.33-122.75,1.67-3.69.18-7.87-.43-9.44,4.39-.31,1.85-.07,3.74-.31,5.59a59.86,59.86,0,0,1-.33,8.25,5.51,5.51,0,0,1-2,3.58C86.42,241.34,89,228.71,88.36,216.2Z"/><path class="cls-100" d="M86.67,126.79l4.77-1.56c9.17-5.06,19.72-5.87,29.32-9.58a22.85,22.85,0,0,1,5.33-.76c7.27-1,14.64-1.27,21.84-2.91,46.19-2.16,92.17-.73,137.66,8.4,7.93,1.6,16.23,1.09,23.85,4.33,1.77,4.47-.89,5.28-4.24,4.55-6.57-1.45-13.18-.4-19.76-.78-17.29-.58-34.16-4.74-51.34-6.24A535.26,535.26,0,0,0,163,120.38c-22.16,1-43.1,7-64.58,10.74-3.9-.41-7.89.16-11.74-1Z"/><path class="cls-101" d="M88.23,182.16c26,4.13,52.6,2.32,78.51,7.77,5.45,1.14,11.32.23,17,.39,2.54.08,5.41-.76,7.77,2.24-4.09,1.5-7.77,2.77-11.81,2.61-18.85-.75-37.78,1.59-56.6-1.53-7.84-1.3-15.5,1.45-23.3,1.81-8,.38-11.5,4.69-10,12.73-.49.64-1,.67-1.48,0Q88.28,195.16,88.23,182.16Z"/><path class="cls-78" d="M89.8,253.75l.11-3.31c7.76-1.75,15.61-1.18,23.3-.1,34.46,4.8,68.82,10.4,103.73,10.91a14.65,14.65,0,0,1,4,.69c1.94.71,3.65,1.69,4.33,3.82-1.73,4.33-5.64,4.71-9.41,4.87a117.45,117.45,0,0,1-27.43-1.58,481.59,481.59,0,0,0-82.93-7.95c-10.11-.15-10.13,0-11.82,10.23a9.84,9.84,0,0,1-2.18,5.13l-.09.09-1.53-.08Z"/><path class="cls-102" d="M88.34,208.18h1.48c6.82.84,13.49-.78,20-2.19,17.34-3.8,34.54-5.76,52.44-4.64,20.34,1.27,40.87,1.25,61.1-2.78,2.6-.52,5.38-.12,8.08-.15,2-.54,4.43-2.43,4.89,1.63a62.6,62.6,0,0,1-22.54,4.58c-19.65.09-39.34,1.8-59-1.14-9.66-1.44-19.49.24-28.8,2.42a143.59,143.59,0,0,1-37.57,4Z"/><path class="cls-103" d="M172.81,180.52c-28.27.94-56.39-2.25-84.6-3.23l-.09-6.46c8.48,3.24,17.51,1.4,26.27,3,32.81,5.88,66,2.78,99.09,3.5-.76,4.41-4.21,2.17-6.37,2.3C195.69,180.34,184.21,178.63,172.81,180.52Z"/><path class="cls-52" d="M86.67,130.13c3.23-1.55,6.46-3,9.71,0,3.3,2.72,7.13.56,10.67,1.12s7.43-.82,10.45,2.18c-10.27,2.82-20.54,2.42-30.8,0Z"/><path class="cls-104" d="M59,128.49a84.9,84.9,0,0,1-8.68-.06c-2.42-.27-6.48,1.6-6.84-1.88-.4-3.83,3-6.83,6.28-8.68,3-1.66,5.71-.75,7.4,2.43C58.45,122.68,59.54,125.1,59,128.49Z"/><path class="cls-105" d="M60.51,135a4.15,4.15,0,0,1,0,4.82l-1.61,0-21.43-1.72c-2-.15-2.71-1.41-3-3.15Z"/><path class="cls-106" d="M63.59,44c1.12,3.14,4.93,2.52,6.69,4.77-2.49,1.53-5.26,1.64-8.07,1.62-1.27,1.69-2.5,3.48-5,1.67l-.23.27c-3.94-3.51-2.13-6.64.65-9.71l2.82,2.89Z"/><path class="cls-107" d="M47.5,68.27l-1.71.16v-7C48.26,63.84,46.86,66.25,47.5,68.27Z"/><path class="cls-108" d="M499.88,56.91c2.5,1.68,1.4,4.33,1.79,6.58-.44.36-.49,2.94-1.35.62C499.52,62,500,59.33,499.88,56.91Z"/><path class="cls-15" d="M495.09,89.68c-7.73,5.83-17.27,6.68-26.08,9.53-2.71-7.94,0-11.13,8.35-9.77,2.29.37,4.87.48,6.56-1.87l5.85.15C491.08,89.61,493.15,89.47,495.09,89.68Z"/><path class="cls-109" d="M58.76,30.84c3.91,2.7.68,6.67,1.77,9.87C57.51,37.85,59.53,34.1,58.76,30.84Z"/><path class="cls-64" d="M480.37,31.1c2-.38,2-2.54,3.16-3.63l1.77,1.89a3.88,3.88,0,0,1-.05,4.81Z"/><path class="cls-110" d="M485.25,34.17c0-1.61,0-3.21.05-4.81,3.07,3.4,1,7.51,1.55,11.26-1.32-.7-1.53-1.95-1.63-3.26Z"/><path class="cls-111" d="M91.44,110.62c-.65-.38-3.38-.29-.58-1.52,1.71-.74,4.09.32,5.48-1.74,3.74-3.37,8.35-2.09,12.66-2.42a32.25,32.25,0,0,0,13-1.16c26-2.55,52.09-.81,78.13-1.26,1.88,0,3.8,0,5.23,1.58,6.28,3.33,13.05.82,19.54,1.61,9.92-2.29,19.7-2,29.28,1.65,7.4,3.39,15.21.83,22.79,1.59,7-4.51,14.77-2.91,22-2,21.9,2.67,43.57.31,65.3-1.5,4-.34,8-1.18,12,.32l29.25-.1a7.86,7.86,0,0,1,7.12-3.08c12.07,1.13,24.18.33,36.25.91a8.84,8.84,0,0,1,5.27,1.77A1.93,1.93,0,0,1,454,108c-2.33,1.7-5.06,1.8-7.77,1.86-35.47.68-70.76,4.45-106.25,5.37-36.08,1-71.92-1.06-107.83-3.34-32.44-2-64.91-3.64-97.39-.81-5.4.77-11-.6-16.28,1.38C109.39,112.62,100.16,115.34,91.44,110.62Z"/><path class="cls-15" d="M376.25,105.74c-6.84,2.51-14.08,2.29-21.16,3.26-26,3.56-52.08.08-78.13,0-.79-2.58-5.06-4-3.9-6.55,1.42-3.18,5.33-1.48,8.09-1.49q44.87-.16,89.72,0C373.62,100.93,379.19,98.92,376.25,105.74Z"/><path class="cls-112" d="M454.35,107.35v-1.64q-3.19-4,0-8.12a7,7,0,0,1,.26-1.36l3-.2c.11,3.25.21,6.5.32,9.75,2.09,2.69,2.2,5.63,1.07,8.71.45,8,1.28,16-1.27,23.87a12.56,12.56,0,0,1,0,1.37c-.05,3.36-.11,6.72-.16,10.07-1,1.79-1.27,4.5-4.08,4.45-8.86-.14-17.67,1.92-26.54.75,7.36,1.26,14.7-.92,22-.39,2.56.18,6.34-1.57,7,3.11l-.09.16a9.59,9.59,0,0,1-2.71,1.63,19.73,19.73,0,0,1-6.43.81c-39.85.09-79.7-.34-119.52,1.62-4,.2-8.17.46-11.95-1.56-2.2-4.28,1.49-4.28,3.73-4.54,4.83-.55,9.83-1.06,14.54.32,4,1.18,7.94.39,11.88.84-3.4-.49-7,.94-10.23-1.12,1.69-4.31,5.64-3.33,8.95-3.87,26.86-4.39,53.94-2.87,81-3a139.33,139.33,0,0,0,23.38-1.66,3.66,3.66,0,0,0,4.06-3.11,7.16,7.16,0,0,1,1.77-2.75c-.56-2.19,2.89-4.34.08-6.56-.43-.32-.59-.66-.47-1s.24-.54.38-.54c0-1.1,0-2.2,0-3.29A24.09,24.09,0,0,1,454.35,107.35Z"/><path class="cls-15" d="M205.35,104.1c-28.2.41-56.44-1.27-84.6,1.63-3.58,2.08-7.81-.54-11.39,1.58l-13,0c-2.55-.59-7,1.51-6.87-3.12.08-4.1,4.13-3.38,7-3.39,15.68,0,31.36,0,47,0H212.9C210.7,104.93,207.76,103.82,205.35,104.1Z"/><path class="cls-15" d="M454.29,97.59c0,2.7,0,5.41,0,8.12-13.65-.73-27.37,1.42-41-1.22-2.45-.48-5.23.72-7.85,1.15-3-2.82-6.66-1.21-10-1.5-3.17-.27-6.46.16-9.3-4.09C409.19,95.47,431.84,98.46,454.29,97.59Z"/><path class="cls-15" d="M254.17,107.36c-9.8.09-19.59.22-29.28-1.65,0-2.65.45-4.87,3.84-4.84,7.79.06,15.6-.29,23.34.3C255.3,101.42,259.92,103.13,254.17,107.36Z"/><path class="cls-113" d="M91.44,110.62l27.65,0c3.08-1.24,6.14-1.59,8.31,1.46,1.56,2.19.17,3.84-1.78,5h-4.87c-10.06.87-19.17,6-29.31,6.5C85.92,119.28,87.31,115,91.44,110.62Z"/><path class="cls-89" d="M91.44,123.61c9.52-3.32,18.75-7.91,29.31-6.5a96.65,96.65,0,0,1-29.31,8.12Z"/><path class="cls-114" d="M57.26,52.08l5-1.67c0,1.2.11,2.39.16,3.59C59.83,55.6,58.06,55.13,57.26,52.08Z"/><path class="cls-115" d="M521.09,171.4c0,11.42-1.41,12.53-12.64,10.1-2.1-.46-4.24-.73-6.35-1.14A15.31,15.31,0,0,1,490.28,166c0-2.88,1.45-4.54,4.32-4.89,4.8-.59,9.6-1.52,14.41-1.65C521.08,159.13,521.09,159.28,521.09,171.4Z"/><path class="cls-116" d="M490.73,156.08c-8,2.43-7.14-5.52-9.58-9.43-1-1.65,1.48-3.4,3.48-3.35,9.35.26,18.76-1.37,28.06,1.08,3.65,1,6.37,3.29,5.89,6.54-.51,3.53-4.57,2.12-6.87,1.84C504.47,151.86,498.33,156.91,490.73,156.08Z"/><path class="cls-67" d="M517.82,200.07c.1,5.13-1.37,9.91-3.28,14.58-5.56-1-10.81-3.68-16.59-3.17-6.56.57-9.49-1.34-6.46-8.21a10.53,10.53,0,0,0,.3-3.21c1.18-2.07,1.69-4.83,4.89-4.88,7.43,0,14.67.77,21.14,4.89Z"/><path class="cls-117" d="M487,185.16c-5.91-2.53-12.59-.18-18.29-3.33-1.5-.83-2.88-1.81-2.17-3.73.63-1.69,2.56-3,3.83-1.94,5.24,4.38,11.34,2.21,17.07,2.75,2.46.23,5.54.22,5.23,3.52C492.35,185.55,489.41,185.47,487,185.16Z"/><path class="cls-66" d="M496.68,193.56c-2.39-1.27-4-3-2.56-5.82,1.23-2.43,3.32-1.11,5-.75,7.33,1.58,14.64,3.27,22,4.92h0c.53,2.32-.69,3.45-2.72,4.05C511,196.15,503.67,196.54,496.68,193.56Z"/><path class="cls-118" d="M459.27,213.05V193.56l6.5,0h0c2.1,5.42-1.14,10.85,0,16.27C464.5,212.7,462.51,214.12,459.27,213.05Z"/><path class="cls-119" d="M464.13,165.9c-1.83-1.73-.94-2.48,1-3.32a37.63,37.63,0,0,1,14-3.6c2.67-.1,6.42-3.15,7.25,1.22.61,3.17-3.87,3.2-6.21,3.73-4.69,1.06-9.55,1.36-14.34,2C465.21,166.56,464.67,166.59,464.13,165.9Z"/><path class="cls-120" d="M504.81,133.37l3.25,0c2.43,4.44-.16,4.91-3.73,4.88-8.55-.05-17.13-.49-25.55,1.6h0c-2.1-5.94,2.53-4.49,5.4-4.86C491,134.12,498.16,136.83,504.81,133.37Z"/><path class="cls-9" d="M496.68,193.56c7.61.27,15.32-1,22.77,1.61,1.58-.53,1.94.19,1.63,1.6a3,3,0,0,0-3.26,3.3c-7.25-.76-14.48-1.61-21.14-4.89Z"/><path class="cls-121" d="M480.4,211.43c2.87.72,7.11-2,8.15,3.27l-1,1c-7.59,2.14-15.18,4.62-23.07,1.2-2.07-3.42-.91-5.14,2.9-5.45Z"/><path class="cls-122" d="M459.3,162.61l-.06-16.24c3.3,0,6.57-.34,6.58,4.69C465.83,156.3,466.44,161.55,459.3,162.61Z"/><path class="cls-123" d="M457.7,113.7q.07-4,.17-7.92c4.15.74,10.94-2.5,11.83,2.89,1,6-7.18,3.92-10.45,6.81C458.29,115.27,458.17,114.33,457.7,113.7Z"/><path class="cls-124" d="M459.23,118.72c3.9-.27,6.77.24,6.63,5.42-.13,4.73-1.07,8-6.65,7.62A23.5,23.5,0,0,1,459.23,118.72Z"/><path class="cls-125" d="M465.77,193.54c.38-3.45,3-3.43,5.39-3.21a98.07,98.07,0,0,1,19.6,3.3c-8.35.6-16.69-.68-25-.09Z"/><path class="cls-126" d="M469.4,136.52c-1.74,0-3.46-.44-3.3-2.49.27-3.53,3-3.91,5.83-3.88,2,0,3.82.51,4.51,2.56C476.89,134.07,472.08,136.62,469.4,136.52Z"/><path class="cls-70" d="M478.78,139.87c-1.24,7.1-6.65,4.5-10.85,4.56-.45,0-1.31-1-1.32-1.62a2.61,2.61,0,0,1,2.52-2.62c3.2-.28,6.43-.23,9.65-.32Z"/><path class="cls-127" d="M464.13,165.9h1.62c2.79,8.39,2.36,8.92-6.51,8.13q0-3.25,0-6.51C461,167.46,463,167.81,464.13,165.9Z"/><path class="cls-18" d="M470.38,118.6c-2.11-.15-3.85-1-3.5-2.21,1-3.49,4.73-2.77,7.28-3.83,1.3-.53,2.89.44,2.19,2.14C475.19,117.5,472.18,117.65,470.38,118.6Z"/><path class="cls-128" d="M459.24,188.68v-8.15c2,1.81,6.6.72,6.3,5.07S461.67,188.29,459.24,188.68Z"/><path class="cls-84" d="M459.23,118.72q0,6.52,0,13c-.19,2.28.67,4.79-1.53,6.6q0-12.33,0-24.66l1.56,1.78C459.24,116.56,459.23,117.64,459.23,118.72Z"/><path class="cls-9" d="M467.38,211.43a4.89,4.89,0,0,0-3.24,4.87l-.8.78a3.37,3.37,0,0,1-4.08-.75c0-1.1,0-2.19,0-3.28l6.48-3.24Z"/><path class="cls-129" d="M488.55,214.7c4.8.54,9.6,1.12,14.41,1.61,3.32.33,8.35-.89,7.84,4.3-.45,4.7-3.95,8.51-9.56,7.54-4.22-.73-8.25-2.63-12.69-2.08q-7.21-5.67,0-11.36Z"/><path class="cls-130" d="M488.55,214.71a10.56,10.56,0,0,0,0,11.36l-1.66,0c-3.36,2.58-7.06,1.37-10.73,1.08-4.16-.34-8.55-1.47-12,2.16l0,0a3.42,3.42,0,0,1-4.83,0l.06-3.29c3.19-2.46,1.91-7.1,4.78-9.72l0,0C472.38,217.38,480.35,214.37,488.55,214.71Z"/><path class="cls-68" d="M500,252.06c-.14,3.33.33,7-3.67,6.3-6.85-1.16-5.54-7.46-6.58-12.14-.68-3.06,1.41-4,3.71-3.71C499.57,243.26,499.43,248.28,500,252.06Z"/><path class="cls-131" d="M459.28,229.34l4.83,0,1.65,4.85h0c-2.79.18-5.43-.36-3.26,4.39,2.68,5.88,1.63,11.88-3.22,16.74Z"/><path class="cls-69" d="M465.76,234.21c5,2.8,10.49,1.25,15.75,1.6,3.25.22,6.69-.05,6.72,5.28-6.89-.72-13.66-1.35-20.4-2.19-2.94-.37-3.26-2.29-2.07-4.69Z"/><path class="cls-132" d="M464.13,229.33c1.21-7.15,6.84-5.08,10.83-4.47a69.36,69.36,0,0,0,11.93,1.23c-.51,3.94-3.56,3.2-6.09,3.23C475.24,229.38,469.69,229.33,464.13,229.33Z"/><path class="cls-133" d="M500.61,231.73c-.08,1,0,1.34-.13,1.4-3.73,2.09-7.5,4.09-11.81,1.54-1-.61-1.43-2.33-.66-2.67C492.18,230.17,496.42,230.69,500.61,231.73Z"/><path class="cls-134" d="M521.08,196.77l-1.63-1.6,1.65-3.26c5.43.35,13.11-2.46,11.3,8.05C528.72,198.55,525.15,196.78,521.08,196.77Z"/><path class="cls-119" d="M156.53,271.63h7.81l0-1.65H146.76c.6-4.28,4.2-3.64,6.9-3.87a71.7,71.7,0,0,1,22.55,1.9c8.69,2,17.32,4.33,26.33,4.67,2.51.1,5.66,0,6.09,3.8-2.73.43-5.86-1.07-8.14,1.64-13.8-1.14-27.18-5.84-41.24-5.05C158.38,273.12,157.44,272.13,156.53,271.63Z"/><path class="cls-119" d="M146.78,273.23c2.29-2.69,5.4-1.23,8.14-1.6C152.63,274.31,149.52,272.86,146.78,273.23Z"/><path class="cls-135" d="M221.62,263.47c-25.35,1.2-50.19-3.68-75.26-6-16.53-1.56-32.7-6.52-49.5-5.32a11.43,11.43,0,0,1-7-1.67c0-2.67,0-5.34,0-8,4-3.54,8.62-2.25,13.17-1.64,26.74,3.57,53.47,7.43,80.54,7.22A155.2,155.2,0,0,0,206,246.13c1-.74-.78-1.24-.07-.43.2.23,0,.44-.61.54A158.83,158.83,0,0,1,177.87,248c-27.86-.37-55.32-4.87-82.89-8.27a9,9,0,0,1-5.09-2.32c-.76-5.46.46-8.07,7.12-8.31,42.51-1.52,85-1.5,127.52-1.26,12.41.07,24.77,1.83,37.24,1.52,16.48-.41,33,.61,49.41-1.75a2.11,2.11,0,0,1,3.12.22c12.49,3.35,25.36,2.27,37.76,1.09,18.69-1.77,37.3-.44,55.93-1.17,2.44-.1,4.88-.06,7.32-.08l39.05,0a9.52,9.52,0,0,1,0,8.13h0c-2.91,2.63-6.52,2.23-10,2.25-13.23.09-26.46,0-39.7.1-3,0-5.94,0-8.79,1-9.69,1-19.42.7-29.13.66-26.69-.1-53.21,3.45-79.87,3.68-14.4,1.48-28.83,2.77-42,9.75-4.76,2.51-9.06,5.76-14,8C227.92,262.68,225,263.72,221.62,263.47Z"/><path class="cls-136" d="M454.33,250.5l0,4.85c-3.16,2.84-7.08,2.25-10.81,2.27-17.56.06-35.12,0-52.68,0-3.51,0-7-.19-10.43.92-13.43,1.46-26.73,4.56-40.33,3.57-5.1-.89,1,2.19-.82,2.51a3.11,3.11,0,0,1-1.69,1.76c-3.11,1.16-6.3.89-9.49.7-8.9-2.12-18.08-2.54-27-4.54-2.28-.51-5.88-.19-5.86-3,0-3.27,3.78-2.79,6.25-3.44,4.74-1.25,9.57-1.14,14.4-1.46,16.05-1.08,32.18-1,48.17-3.09,1.95-.11,3.9-.1,5.86-.11,6.75-.26,13.59.87,20.25-1.22,18.08-.07,36.07-2.45,54.16-2C447.82,248.29,451.45,247.82,454.33,250.5Z"/><path class="cls-137" d="M454.34,193.56q-47,0-93.94,0c-10.5,0-20.82,2.16-31.39,1.78-12.67-.46-25.14-1.72-37.38-5,.48-4,2.87-2.22,4.87-1.62,19.88,5.32,40,3.59,60.09,2,7.52-.59,15.1-.37,22.65-.37,25.05,0,50.11-.62,75.11,1.61C454.35,192.46,454.35,193,454.34,193.56Z"/><path class="cls-138" d="M338.82,265.11V263.5a5.53,5.53,0,0,1,4.18-1.57c31.15-2,62.25-5.17,93.54-4,3.77.14,7.55-.17,11.31.41a12.33,12.33,0,0,1,6.49,3.52l.06,3.21c0,.53-.06,1.07-.07,1.6-9.73,1.37-19.47.77-29.21.14a176,176,0,0,0-42.05-.1,20.64,20.64,0,0,1-4.5.59c-10.22.14-20.44.11-30.66,0C344.74,267.33,341.36,267.8,338.82,265.11Z"/><path class="cls-139" d="M454.33,250.5c-21.73-1.22-43.33,2.58-65.05,1.62-6.38,2.16-13.17-.67-19.54,1.6h-4.88a2.73,2.73,0,0,1,.49-4.07c12.71-4.87,26.25-3.2,39.37-4.55,13.71-1.41,27.63-.4,41.46-.32a14.21,14.21,0,0,1,7.1,1.41l1.11,1.07Z"/><path class="cls-140" d="M399,224.44c-14.76.44-29.44-.16-43.93-3.3a1.86,1.86,0,0,1,.93-2.56c9.91-1.58,19.7.27,29.56.81,13.67.74,27.4.18,41.11.19,9.19.87,18.6-1.89,27.64,1.63-2.65,2.89-6.11,1.43-9.21,1.6C429.78,223.66,414.3,221.11,399,224.44Z"/><path class="cls-141" d="M395.76,237.46c2.4-2.63,5.57-1.56,8.41-1.57,16.73-.1,33.47,0,50.2,0,.27,3.8,3.71,7.6,0,11.41l0-.07c-3.05-4.38-7.26-5.93-12.53-5.73-12.09.45-24.23-.81-36.27,1.32a19.68,19.68,0,0,1-9.57-.53c-2.69-1.4-3.17-2.71.18-3.89.32-.11.75.27,1-.24A1.63,1.63,0,0,1,395.76,237.46Z"/><path class="cls-137" d="M454.38,172.38,417,174c-5-.83-10.4,1.8-15-2,.82-3,3.47-3.51,5.79-3.4,15.16.66,30.15-2.82,45.32-1.77l1.31.68Z"/><path class="cls-142" d="M454.34,261.88c-1.77-.08-3.69.27-4.87-1.61-2.18-2.24-5-1.68-7.63-1.63-18.3.31-36.61-.79-54.9.57-2.72.2-5.41,0-7.46-2.24,2.41-2.62,5.58-1.56,8.42-1.57,22.15-.09,44.31-.05,66.46-.05Z"/><path class="cls-143" d="M456,157.72c-6.91-3.43-14.26-.81-21.37-1.53-3.14-.32-6.34-.06-9.54-1.16,8-.71,15.89-1.61,23.85-2,3.34-.18,6.4-.32,8.6-3.19C457.16,152.47,458.69,155.51,456,157.72Z"/><path class="cls-137" d="M454.34,221.21l-27.64,0a2.17,2.17,0,0,1,0-3.22l27.65,0Z"/><path class="cls-131" d="M464.12,216.33c-.42,3.82,1.7,8.88-4.78,9.72q0-4.86-.08-9.72Z"/><path class="cls-137" d="M454.35,217.93q0-12.18,0-24.36A38.32,38.32,0,0,1,454.35,217.93Z"/><path class="cls-137" d="M454.36,191.91l0-19.51A25.88,25.88,0,0,1,454.36,191.91Z"/><path class="cls-137" d="M454.28,157.89h1.64c-.42,3.23,1.28,6.8-1.53,9.67l-.06-.05C451.59,164.31,451.91,161.11,454.28,157.89Z"/><path class="cls-141" d="M454.37,235.84c0-2.71,0-5.42,0-8.13C456.78,230.42,456.76,233.13,454.37,235.84Z"/><path class="cls-144" d="M394.15,240.71c17.17-1.55,34.39-1.69,51.62-1.72,6.05,0,9.44,1.57,8.58,8.2-8.91,0-17.83.25-26.73,0-21-.61-41.84,2.17-62.76,3.31-2.77,2.07-6.07,2.15-9.28,2.35-18.86,1.19-37.72,2.44-56.61,3.24a32.93,32.93,0,0,0-12.36,2.67c12.55,3.74,24.8,4.88,36.94,6.61,4.6,2.47,9.73.68,14.5,1.81,6.57,5,0,4.71-2.49,6.05-42.3,1.28-84.55,4.87-126.93,3.27-19.56-1.86-38.3-9.64-58.33-8-1.21.1-2.36,1-3.54,1.53-12.41,1.26-24.43,4.8-36.94,5.79-6.14.48-12.24.36-18.34.69-.12-17.87-.11-18.27,17.79-17.77a553.94,553.94,0,0,1,85.05,8.7c10,1.83,20.82,3.82,30.61-2.25,25.48-15.26,52.89-23.51,82.79-22.79,24.58-1.55,49.19-2.41,73.8-3.11C385.74,239.12,390.21,237.93,394.15,240.71Z"/><path class="cls-145" d="M335.56,273.22c.46-2,5.67-.89,3.25-4.85,3.6-2.82,7.82-1.47,11.76-1.56,10.55-.24,21.1,0,31.65-.15,10.18-2,20.39-1.79,30.7-.87a260.83,260.83,0,0,0,29.2,1c4.36-.11,8.71.06,12.25,3.21.37,4.05-1.87,4.82-5.43,5-7.61.32-14.88-1.94-22.33-2.44-25.24-1.69-50.53-1.35-75.79-.11-3.41.17-6.9.68-10.38.84Z"/><path class="cls-142" d="M454.37,270c-15.93-3.55-32.29,0-48.32-3.06-7.66-1.47-15.56.3-23.29,1.43-.73-1.44-4.25-.08-3.26-3.24h3.25a232.89,232.89,0,0,1,42.33,0c9.73.8,19.65-1.71,29.25,1.59C454.34,267.79,454.35,268.89,454.37,270Z"/><path class="cls-146" d="M15,192,44.26,187h0c1.76,2.18,1.49,4.34,0,6.51h0a60.72,60.72,0,0,0-21.5,2.51C19.09,197.22,14.88,198.36,15,192Z"/><path class="cls-95" d="M44.23,193.54l0-6.51c7.93-1.28,15.89-2.44,23.78-3.9,2.53-.46,4.91-1.59,5.4,2.24.43,3.41-1.13,4.71-4.58,5C60.61,191,52.28,191.26,44.23,193.54Z"/><path class="cls-147" d="M426.69,218c0,1.07,0,2.15,0,3.22-23.9.86-47.74-1.06-71.61-1.6A297.75,297.75,0,0,0,319,218c-12.47,1.52-24.92-.31-37.21-1.41a221.27,221.27,0,0,0-64.63,3.55,283.58,283.58,0,0,1-65.63-.23c-4.88-1.46-9.79-2-14.75-.31a45,45,0,0,1-9.63.62c-4.66,0-9.34-.22-13.93.91-7.79-.55-15.75,1.79-23.36-1.46,0-1.08-.07-2.16-.1-3.25,20.55.86,41-2.5,61.55-1.88,6.79.2,13.38,1.47,20.09,1.95,22.92,1.64,45-4.09,67.34-7.21a193.57,193.57,0,0,1,45.31-.49c12.34,1.19,24.7.54,37.06,2.41,20.43,3.1,41.09,4.93,61.73,6.33C397.41,218.47,412.07,217.86,426.69,218Z"/><path class="cls-148" d="M402.27,172.39c4.87.76,10.09-1.62,14.68,1.65h0c-3,2-6.77-.49-9.77,1.61a549.9,549.9,0,0,1-65.44,3.44,257.39,257.39,0,0,1-61.63-7.42c-18.59-4.58-38-4.09-56.72-7.6-6-1.12-13.15,1.09-18-4.65,2.43-2.5,5.41-2.07,8.4-1.61,13.83,4.19,28.24,2,42.34,3.77,10.89,1.35,21.84,2.26,32.66,4.25,15.45,4.09,31.06,6.44,47.14,5.77,18-.76,36.1,1,54.1-1.46C394.11,169.58,398.66,169.06,402.27,172.39Z"/><path class="cls-137" d="M272.08,182.18c-21.6-2.8-43.24-5.36-64.8-8.46-19.17-2.76-38.41-.3-57.57-1.4-13.17-.75-26.31-2.07-39.44-3.39-2.39-.24-5.3-.56-7.6-4.94,36.89,7.1,73.21.14,109,6.51,20.6,3.67,41.81,3.68,62,10.05C274.07,182,273.8,182.81,272.08,182.18Z"/><path class="cls-72" d="M172.81,180.52c9.28-3.62,18.94-.56,28.35-1.64,4.11-.47,8.56,1.58,12.32-1.58,4.71,1.1,9.87,1.34,14,3.48,9.88,5.07,20.57,6.09,31.15,7.92a18.31,18.31,0,0,1,3.91,1c2.3.95,6.23.65,5.43,4.56-.59,2.91-3.74,2.68-6.15,2.56-8.74-.46-17,2.29-25.58,3.28-1.18-1.91-3.1-1.56-4.89-1.63l24.35-5.6c-5.39-4.07-12.21-1.57-17.83-4-2.17-.94-5.23-.44-6.92-1.79-11-8.84-23.9-6.22-36.32-6.45C187.39,180.42,180.1,180.52,172.81,180.52Z"/><path class="cls-149" d="M114.28,157.68l-1.67-3.15c7.89-5.25,17.11-4.17,25.77-4.83,17.11-1.3,34.3-2.11,51.41.46a2.37,2.37,0,0,1,1.36,2.29c-3.89,4.21-9,2.51-13.56,2.42s-8.86-1.64-12.89-1.19c3.66.65,8.58-1.34,11.46,3.63-8-.61-16-1-24-1.94a9.47,9.47,0,0,0-5.39.76c-5.84,2.19-12.12-.61-18,1.62Z"/><path class="cls-150" d="M176.16,157.31c-4.36-3-9.54-2.67-14.43-4.42h29c3-2.22,6.19-.16,9.27-.64,7.05.25,14.12-.47,21.15.54a38.71,38.71,0,0,0,7.87,1.29c2.5.28,5.6.06,5.77,3.92a6.5,6.5,0,0,1-2.58,1.52c-11.19.62-22.26-.91-33.38-1.71l-3.2-.09c-5.94-1.54-11.93-.82-17.92-.37h-.77Z"/><path class="cls-151" d="M272.08,182.18l1.62-1.63,22.8,8.12c-1.78.07-3.71-.3-4.87,1.62C285.38,186.94,277.72,187,272.08,182.18Z"/><path class="cls-152" d="M198.81,157.81l34.22,0a1.74,1.74,0,0,1-.71,2.48c-6.35,1.59-12.55-.11-18.79-.84h-8.18C203.09,159.18,200.58,160,198.81,157.81Z"/><path class="cls-152" d="M177.69,157.35c6-1.84,12-2.23,17.92.37Z"/><path class="cls-153" d="M128.82,157.75c5.74-3.32,12-.84,18-1.62C141.06,159.61,134.78,156.93,128.82,157.75Z"/><path class="cls-137" d="M407.17,175.65c2.86-2.94,6.51-1.1,9.77-1.61C414.07,177,410.43,175.15,407.17,175.65Z"/><path class="cls-113" d="M454.35,107.35v22.76c-23.32-1.07-46.58-3.36-70-3.26a224.74,224.74,0,0,0-48.57-.2c-9.21.94-17.72,4.09-26.31-1.39-17.95.57-35.16-4.72-52.76-6.9-21.17-2.61-42.27-4.88-63.63-4.57-15.44.23-30.89.06-46.33.07-2.81,1.51-5.86.8-8.76.68-3.26-.13-6-1.29-4.27-5.56,13.26-3.23,26.81-.8,40.18-2,.78-.08,1.6.35,2.4.33,37.85-1,75.37,5.66,113.19,4.84,9-.19,17.73,2,26.63,1.67,35.57-1.52,71.16-2.73,106.67-5.18C433.36,107.88,443.85,107.76,454.35,107.35Z"/><path class="cls-89" d="M454.34,141.52c0,1.07,0,2.14,0,3.21-8.2,4.39-16.9,2.13-25.38,1.62-3.19-.19-6.41-.79-9.65-.79-45.46.07-90.92-.1-136.38-.16a61.15,61.15,0,0,0-15.27,1.44c-3.76.37-7.61-.29-11.3.95a13.84,13.84,0,0,1-4.1.49c-2.32-.32-5.15-.52-5-3.57.12-3.28,3.45-3.33,5.72-4.31a20.19,20.19,0,0,1,3.52-.73,10.34,10.34,0,0,0,2.24-.5c-.59-1-1.58-.3-2.37-.54a29,29,0,0,1-5.95-.65c-2.52-.8-5.2-.6-7.72-1.24-3.37-.85-5.77-2.56-4.74-6.63,15.11-.07,29.93,2.81,44.84,4.58,4.56.55,8.44-1.39,12.76-1.36,20,.14,40.08-.85,60,.29,24.1,1.38,48.27,2.46,72.25,6C436.53,140.86,445.58,139.48,454.34,141.52Z"/><path class="cls-89" d="M117.5,133.38h-27c1.08-4.43,4-2.72,5.93-3.3,19.5-5,38.76-10.73,59.21-11.63,14-.62,28.07-1.7,42.11-1.24a451.55,451.55,0,0,1,68.19,7.27c6.33,1.18,12.8,1.62,19.21,2.39a2.16,2.16,0,0,1,0,3.24c-15.12.11-29.89-3.84-44.9-4.21-19.87-.49-39.55-3-59.68-1.4C159.23,126.22,139,134.09,117.5,133.38Z"/><path class="cls-89" d="M89.82,144.76c-3.13-4.87-1.6-7.69,4-8,5.11-.32,10.27-.15,15.4-.08a326.3,326.3,0,0,0,71.3-6.75c13.68-2.85,27.46-.66,41.17-1.38,0,8.48-6.66,4.28-10.45,5.55-3.05-.1-6.11-.09-9.15-.13-2.58.07-5.24-.52-7.7.74-3.38,1.51-.65,3.07,0,4.62.93,2.44.45,4.31-2.1,5.39-10.27,1-20.42-1.53-30.72-.81-21.85,1.52-43.78,1.19-65.65,2.48C93.63,146.47,91.54,146.41,89.82,144.76Z"/><path class="cls-154" d="M194,143.13c-.55-1.61-1.09-3.22-1.64-4.84,5.47-3.54,11.79-4.75,17.9-6.54,3.8-1.09,9,2.68,11.41-3.25,5.4.71,11.12-1.68,16.27,1.61,1.46,8,9.49,2.71,13,6.47-4.48,4.06-9.83,1.42-15.68,1.91-.17,0,.78,1.63.69.55,0-.18.09-.28.32-.26,6,.56,12.38-1,17.92,2.73a20.85,20.85,0,0,1-2.66,1.54c-1.12.45-3.19-.05-2.91,1.81.33,2.11,2.51,1.27,3.95,1.53-.57,4.31-4.14,3.7-6.82,3.74-7.51.12-15,.64-22.53-.21a29.58,29.58,0,0,0-9.49-1.35,32.64,32.64,0,0,1-6.69-.65C202.87,145.82,196.84,148.75,194,143.13Z"/><path class="cls-153" d="M190.67,151.32c-26.09-.5-52.14-.24-78.06,3.21-6.62-.47-13.28.74-19.91-1.28-3.08-.94-4.82-1.87-4.48-5.21,9.81-4.1,20.31-2.75,30.4-3,22.92-.56,45.87-2.3,68.85-.43,4.85.39,9.46,2.31,14.38,1.86,4.65,1.49,9.45,1.6,14.28,1.7,1.5,0,3.54.15,3.58,2.22s-2,2.34-3.53,2.31C207.66,152.53,199,154.19,190.67,151.32Z"/><path class="cls-70" d="M202.11,148c-38-3.79-75.93-.83-113.89,0,.53-1.1,1.07-2.19,1.6-3.28,34.7-1.67,69.36-5.42,104.15-1.63,3.81,3.21,9.28-.22,13,3.25C205.83,148.32,203.52,146.82,202.11,148Z"/><path class="cls-155" d="M285.09,130.11c0-1.08,0-2.16,0-3.24,6.88.48,13.86-1.11,20.66,1.17,2.33.79,3.5-.5,3.75-2.78,22.17,1.86,44.34-1.13,66.51,0,2.83.15,6-1,8.37,1.58H334.65c4.52,3.12,9.37-.08,13.44,4.11C326.38,133.52,305.74,130.18,285.09,130.11Z"/><path class="cls-156" d="M454.33,133.4q0,.78.09,1.56c-4.64,3.33-10,1.78-14.83,1.5a414.29,414.29,0,0,1-44.32-4.83C415,131.12,434.62,134,454.33,133.4Z"/><path class="cls-157" d="M216.76,217.94c20.54-5,41.28-6,62.31-4,13.36,1.27,26.8,1.63,40.2,2.4a2.1,2.1,0,0,1,0,3.19c-16.73,5.83-33.58,5.64-50.84,2.14-8.4-1.7-17.14.21-25.74.88-11.83.92-23.78.25-35.68.25-.51-2.45,1.31-2.36,2.76-2.34C212.44,220.49,214.86,220,216.76,217.94Z"/><path class="cls-158" d="M216.76,217.94c-1,6.14-7.6,1.05-9.76,4.87-25.52,3.2-51,.92-76.55-.08a213.71,213.71,0,0,0-38.94,0c-1.38-.58-1.66-1.74-1.64-3.07l24.33-.07c4.15-2.13,8.9.62,13-1.61H137a22.91,22.91,0,0,1,13,0c18,.25,36,2.57,54,1.73A53.19,53.19,0,0,0,216.76,217.94Z"/><path class="cls-78" d="M89.89,237.41c18.39,2.28,36.78,4.66,55.2,6.81,20.58,2.41,41.2,4,61.84.53,1.41-.24,2.62-.5,4.06,1.8-4.54.8-8.76,2.1-13,2.2-26.72.64-53.32-.21-79.86-4.32-9.16-1.41-18.67-3.1-28.17-2Z"/><path class="cls-159" d="M314.3,227.83l-3.12-.22c-1.63-1.78-3-2.54,1.11-3.37,15.33-3,30.45-.08,45.69,1.17C343.66,229.58,328.85,226.86,314.3,227.83Z"/><path class="cls-160" d="M319.26,219.53c0-1.06,0-2.13,0-3.19,12.05-.15,24,.54,35.82,3.25,0,.52,0,1,0,1.55C343.28,217.9,331.2,220.35,319.26,219.53Z"/><path class="cls-96" d="M91.51,222.7a102.23,102.23,0,0,1,38.94,0Z"/><path class="cls-52" d="M133.76,109c1.89,8.18,8.53,3.67,13,4.88-6.84,2.51-14.07,2.45-21.17,3.24,3.38-7.74-2.6-6.09-6.53-6.51C123.69,107.38,128.88,109.67,133.76,109Z"/><path class="cls-153" d="M148.16,191.91c-13.46,0-26.93,0-40.39,0-4.29,0-8.6-.46-12.82,1.17-2.08.81-4.54.66-4.9-2.4s1.74-4.05,4.09-3.57c12.27,2.48,24.82.31,37,2.25C136.79,190.28,142.41,189.64,148.16,191.91Z"/><path class="cls-161" d="M306.26,244c-24.49,1.23-48.31,5-69.89,17.77a22.75,22.75,0,0,1-11.44,3.41c-1.36-.06-2.6-.34-3.31-1.67,8.92-4.73,17.71-9.7,26.78-14.1,11.54-5.6,23.94-7.41,36.69-7,6.23-1.69,12.57-.41,18.86-.71C305.46,241.55,306.44,242.25,306.26,244Z"/><path class="cls-52" d="M109.36,107.31c3.44-3.06,7.61-1,11.39-1.58C117.31,108.79,113.15,106.74,109.36,107.31Z"/><path class="cls-162" d="M402.27,172.39c-27.51,2.15-55.08,1.88-82.63,1.52a87,87,0,0,1-31.3-6.33c-3.09-7,3.25-6.41,6.56-8.3,6.51-1.61,13-4.09,19.51.07,46.62-.69,93.24-2.5,139.88-1.46,0,3.21,0,6.41,0,9.61-13.64,2.64-27.44,3.21-41.29,3.36C409.44,170.9,405.49,169.43,402.27,172.39Z"/><path class="cls-163" d="M452.7,149.62c-27.69,3.13-55.49.73-83.21,1.88-11.37.47-22.66,3-34,4.6-3.87,1.6-7.85.75-11.8.47-19.65.29-39.31.77-58.93,0-11.68-.44-23.58-.06-35-3.54-.1-3.26,2.41-3.14,4.49-3.32,27.69-2.34,55.24-6.55,83.2-5,34.88,1.87,69.81.39,104.71,1,8.63.16,17.28.49,25.93.76C450.11,146.56,452.69,146.33,452.7,149.62Z"/><path class="cls-164" d="M452.7,149.62c-2.4-2.65-5.58-1.55-8.42-1.56q-45.43-.12-90.86-.06c-22.93,0-45.82-3.09-68.75-1.49a506.42,506.42,0,0,0-54.87,6.35c-3.93,3.44-8.29.38-12.43.75-6.14.54-12.36-.54-18.5.62l-8.16-1.34c0-.53,0-1,0-1.57h27.5c-5.11-3-11.1-.06-16.06-3.31,1.17-1.92,3.1-1.57,4.89-1.63l6.5,0c2.44,2,5.7-.29,8.15,1.59,10.29-.86,20.77,1.91,30.92-1.6h3.24c3-2,6.78.49,9.78-1.62,7.94-2,16.05-1.64,24.13-1.64q62.11,0,124.22,0c13.49,0,26.86,2.74,40.39,1.6C454.3,146.53,454.7,148.48,452.7,149.62Z"/><path class="cls-165" d="M324.22,156.09l11.28,0h14.29l0,1.67c-9,0-18-.08-27.06,0-2.82,0-5.95-1-8.35,1.53-6.56-.06-13.1.14-19.53,1.66-11.08,3.36-22.17,3-33.28.16-2.34-.86-4.87-1.45-6.2-3.91a1.84,1.84,0,0,1,1.91-1.88c19.93-.07,39.86,0,59.79,0C319.48,155.38,322,154.8,324.22,156.09Z"/><path class="cls-166" d="M306.26,244c-6.82-3.56-14.15-.67-21.17-1.63,1.13-1.43,2.71-1.58,4.36-1.6,35.46-.27,70.79-4.89,106.31-3.27h6c-3,2.51-6.31.62-7.65,3.25Z"/><path class="cls-167" d="M324.16,266.75c-13.69-.48-26.9-5-40.66-5-1.43,0-2.73-.61-2.85-2.22s1.08-2.31,2.48-2.66c4.16-1,8.29-2.8,12.49-3,12.35-.6,24.7-.66,37.07-1.42,10.71-.66,21.37-2.77,32.17-2v3.23c-22.57,3.17-45.51,1.61-70,5.54l34.17,5.86C328.59,269.16,326.16,267.3,324.16,266.75Z"/><path class="cls-168" d="M379.48,257c21.7,0,43.4-.06,65.1.14,1.73,0,6.36-2.55,4.89,3.16-18.91,0-37.86-.72-56.72.26-16.89.87-33.71,3-50.67,3-.93-2.12-5.37,1.06-4.86-3.22C351.46,261.12,365.35,257.42,379.48,257Z"/><path class="cls-169" d="M324.16,266.75c1.79-.07,3.72.28,4.89-1.63H379.5l3.26,3.24H338.81C334,267.65,328.74,270,324.16,266.75Z"/><path class="cls-167" d="M369.74,253.72c6.28-3.36,13.05-.81,19.54-1.6C383,255.46,376.23,252.93,369.74,253.72Z"/><path class="cls-169" d="M337.22,260.26l4.86,3.22-3.26,0c-2-.24-4.87.62-5.16-2.35C333.54,260,335.93,260.37,337.22,260.26Z"/><path class="cls-169" d="M425.08,265.1H382.75c5.72-3.44,12-1.55,17.95-1.43C408.81,263.84,417.15,261.56,425.08,265.1Z"/><path class="cls-96" d="M127.24,218c-4,3.24-8.71.92-13,1.61C118.22,216.38,122.91,218.63,127.24,218Z"/><path class="cls-96" d="M150,217.94H137A12.38,12.38,0,0,1,150,217.94Z"/><path class="cls-170" d="M260.7,159.36c11.32,2,22.76,1.67,34.18,1.65-1.93,2.44-7.78,1-6.54,6.57-24.14-4-48.63-4.13-72.88-6.82-.69-.08-1.29-.88-1.93-1.35l19.48-.08C242.25,155.22,251.47,157.07,260.7,159.36Z"/><path class="cls-171" d="M324.22,156.09l-68.4,0c-3,2.5-6.26.74-9.39.69-8.33-.11-16.56-1.54-24.84-2.28l-22.72-.32c10.2-3,20.64-.5,30.93-1.37,29.44,1.58,58.9,2,88.37,1.71C320.3,154.55,322.56,154.17,324.22,156.09Z"/><path class="cls-152" d="M221.59,154.55c11.42.25,22.92-1.07,34.23,1.59v1.61a58.44,58.44,0,0,1-21.18,0C231,153.93,225.27,158.32,221.59,154.55Z"/><path class="cls-171" d="M234.64,157.75h21.18c1.78.08,3.69-.26,4.88,1.61l-27.69,0c0-.52,0-1,0-1.56C233.57,157.75,234.1,157.75,234.64,157.75Z"/><path class="cls-172" d="M254.19,141.51c-7.26.24-14.47,0-22.76-3,7-3.42,13.45-1.24,19.51-2l6.48.06c.95,1.13,3.43.49,3.43,2.42s-2.48,1.29-3.42,2.43Z"/><path class="cls-154" d="M257.43,141.49q3.42-2.43,0-4.85c2,.5,5.62-1.34,5.66,2.13C263.11,141.62,259.79,141.46,257.43,141.49Z"/><path class="cls-154" d="M265.59,144.76c-2.86,2.93-6.51,1.11-9.78,1.62C258.67,143.43,262.33,145.28,265.59,144.76Z"/><path class="cls-173" d="M210.23,131.75a3.25,3.25,0,0,1-2.93,3.18c-3.12.58-7.34-1.88-8.53,4.13-.41,2.07-4.09-1.24-6.44-.77-4.15-1.65-1.26-3.29,0-4.93,2.45-1.88,5.72.37,8.15-1.61Z"/><path class="cls-154" d="M200.49,131.75c-2.29,2.68-5.4,1.22-8.15,1.61C194.63,130.66,197.74,132.13,200.49,131.75Z"/><path class="cls-70" d="M221.65,148c-2.75-.37-5.85,1.1-8.15-1.59C216.25,146.76,219.35,145.33,221.65,148Z"/><path class="cls-89" d="M234.91,131c-1.73,1-3.38,1-5.52,0C231.47,129.84,233.12,129.7,234.91,131Z"/><path class="cls-174" d="M293.2,159H274.13l0-.72h19.08Z"/></g></g></svg>