<svg xmlns="http://www.w3.org/2000/svg" xmlns:xlink="http://www.w3.org/1999/xlink" viewBox="0 0 980.42 709.51"><defs><style>.cls-1{fill:none;}.cls-2{isolation:isolate;}.cls-3{clip-path:url(#clip-path);}.cls-4{fill:url(#Nueva_muestra_de_degradado_1);}.cls-5{fill:url(#linear-gradient);}.cls-6{fill:url(#linear-gradient-2);}.cls-7{fill:url(#linear-gradient-3);}.cls-8{fill:url(#linear-gradient-4);}.cls-9{fill:url(#linear-gradient-5);}.cls-10{fill:url(#linear-gradient-6);}.cls-11{fill:url(#linear-gradient-7);}.cls-12{mix-blend-mode:multiply;opacity:0.5;}.cls-13{clip-path:url(#clip-path-2);}.cls-14{fill:url(#radial-gradient);}.cls-15{clip-path:url(#clip-path-3);}.cls-16{fill:url(#radial-gradient-2);}.cls-17{clip-path:url(#clip-path-4);}.cls-18{fill:url(#radial-gradient-3);}.cls-19{clip-path:url(#clip-path-5);}.cls-20{fill:url(#radial-gradient-4);}.cls-21{fill:#e5e5e5;}</style><clipPath id="clip-path" transform="translate(217.16 58.56)"><rect class="cls-1" width="665.68" height="413.28"/></clipPath><linearGradient id="Nueva_muestra_de_degradado_1" x1="217.12" y1="62.77" x2="883.08" y2="467.75" gradientUnits="userSpaceOnUse"><stop offset="0" stop-color="#4f7934"/><stop offset="1" stop-color="#00cca7"/></linearGradient><linearGradient id="linear-gradient" x1="425.92" y1="-140.71" x2="22.84" y2="262.37" gradientTransform="translate(691.72 409.7) rotate(180)" gradientUnits="userSpaceOnUse"><stop offset="0" stop-color="#3683b1" stop-opacity="0"/><stop offset="1" stop-color="#320051" stop-opacity="0.25"/></linearGradient><linearGradient id="linear-gradient-2" x1="639.06" y1="63.05" x2="430.62" y2="271.49" gradientUnits="userSpaceOnUse"><stop offset="0" stop-color="#3683b1" stop-opacity="0"/><stop offset="1" stop-color="#36ccb1" stop-opacity="0.25"/></linearGradient><linearGradient id="linear-gradient-3" x1="240.01" y1="193.78" x2="-127.97" y2="561.76" gradientUnits="userSpaceOnUse"><stop offset="0" stop-color="#320051" stop-opacity="0.25"/><stop offset="1" stop-color="#3683b1" stop-opacity="0"/></linearGradient><linearGradient id="linear-gradient-4" x1="239.27" y1="90.73" x2="136.6" y2="193.39" gradientTransform="translate(184.43 -147.16)" xlink:href="#linear-gradient-2"/><linearGradient id="linear-gradient-5" x1="-1.61" y1="133.92" x2="-83.99" y2="216.3" gradientTransform="translate(184.43 -147.16)" xlink:href="#linear-gradient-2"/><linearGradient id="linear-gradient-6" x1="225.69" y1="114.37" x2="88.81" y2="251.25" gradientTransform="translate(272.53 595.87) rotate(180)" xlink:href="#linear-gradient-2"/><linearGradient id="linear-gradient-7" x1="9.08" y1="-46.5" x2="-127.8" y2="90.38" gradientTransform="translate(653.77 213.13)" xlink:href="#linear-gradient-2"/><clipPath id="clip-path-2" transform="translate(217.16 58.56)"><rect class="cls-1" x="18.69" y="186.07" width="694.55" height="46.18" transform="translate(-40.71 320.04) rotate(-45)"/></clipPath><radialGradient id="radial-gradient" cx="611.93" cy="-296.36" r="337" gradientTransform="translate(-23.8 670.29) rotate(-45) scale(1 0.09)" gradientUnits="userSpaceOnUse"><stop offset="0" stop-color="#3683b1"/><stop offset="0.03" stop-color="#2f739b" stop-opacity="0.88"/><stop offset="0.08" stop-color="#245877" stop-opacity="0.67"/><stop offset="0.13" stop-color="#1a4057" stop-opacity="0.49"/><stop offset="0.2" stop-color="#122c3b" stop-opacity="0.34"/><stop offset="0.27" stop-color="#0b1c25" stop-opacity="0.21"/><stop offset="0.35" stop-color="#060f14" stop-opacity="0.12"/><stop offset="0.45" stop-color="#030609" stop-opacity="0.05"/><stop offset="0.6" stop-color="#010102" stop-opacity="0.01"/><stop offset="1" stop-opacity="0"/></radialGradient><clipPath id="clip-path-3" transform="translate(217.16 58.56)"><rect class="cls-1" x="288.16" y="327.59" width="540.77" height="35.96" transform="translate(-80.76 496.17) rotate(-45)"/></clipPath><radialGradient id="radial-gradient-2" cx="649.38" cy="2167.39" r="262.39" xlink:href="#radial-gradient"/><clipPath id="clip-path-4" transform="translate(217.16 58.56)"><rect class="cls-1" x="-152.56" y="244.11" width="725.34" height="48.23" transform="translate(-128.13 227.13) rotate(-45)"/></clipPath><radialGradient id="radial-gradient-3" cx="262.25" cy="-1983.16" r="351.95" gradientTransform="translate(241.42 -56.19) rotate(135) scale(1 0.09)" xlink:href="#radial-gradient"/><clipPath id="clip-path-5" transform="translate(217.16 58.56)"><rect class="cls-1" x="-130.09" y="172.9" width="452.33" height="30.08" transform="translate(-104.75 122.98) rotate(-45)"/></clipPath><radialGradient id="radial-gradient-4" cx="282.08" cy="-593.51" r="219.48" gradientTransform="translate(241.42 -56.19) rotate(135) scale(1 0.09)" xlink:href="#radial-gradient"/></defs><g class="cls-2"><g id="Capa_2" data-name="Capa 2"><g id="OBJECTS"><g class="cls-3"><rect class="cls-4" x="217.16" y="58.56" width="665.68" height="413.28"/><path class="cls-5" d="M558,144.06A80.69,80.69,0,1,1,672.14,258.17L323.62,606.7,209.51,492.59Z" transform="translate(217.16 58.56)"/><path class="cls-6" d="M487.94,273.17a41.73,41.73,0,1,1-59-59L609.16,33.94l59,59Z" transform="translate(217.16 58.56)"/><path class="cls-7" d="M325.52,280.71A121.93,121.93,0,0,1,153.09,108.26L-217.16,478.52-44.73,651Z" transform="translate(217.16 58.56)"/><path class="cls-8" d="M324.84,47.06a3.28,3.28,0,0,1-4.63-4.64l101-101,4.64,4.64Z" transform="translate(217.16 58.56)"/><path class="cls-9" d="M103.5,69.8a2.63,2.63,0,0,1-3.72-3.72l81-81,3.72,3.72Z" transform="translate(217.16 58.56)"/><path class="cls-10" d="M178.65,343.51a4.37,4.37,0,0,1,6.18,6.18L50.19,484.33,44,478.15Z" transform="translate(217.16 58.56)"/><path class="cls-11" d="M531,304.62a4.37,4.37,0,0,1-6.18-6.18L659.5,163.8l6.18,6.18Z" transform="translate(217.16 58.56)"/><g class="cls-12"><g class="cls-13"><path class="cls-14" d="M627.85-20.07c-12.15-12.15-128.7,84.69-260.31,216.3S139.08,444.39,151.23,456.54s128.7-84.68,260.32-216.3S640-7.92,627.85-20.07Z" transform="translate(217.16 58.56)"/></g></g><g class="cls-12"><g class="cls-15"><path class="cls-16" d="M762.45,167.09C753,157.63,662.25,233,559.77,335.5S381.9,528.72,391.36,538.18,491.57,472.25,594,369.77,771.91,176.56,762.45,167.09Z" transform="translate(217.16 58.56)"/></g></g><g class="cls-12"><g class="cls-17"><path class="cls-18" d="M-63.39,507.62C-50.7,520.32,71,419.18,208.46,281.73S447.05,22.57,434.36,9.87,300,98.32,162.5,235.77-76.09,494.93-63.39,507.62Z" transform="translate(217.16 58.56)"/></g></g><g class="cls-12"><g class="cls-19"><path class="cls-20" d="M-74.48,337.22c7.91,7.92,83.81-55.15,169.53-140.86S243.83,34.74,235.92,26.82,152.1,82,66.39,167.69-82.4,329.31-74.48,337.22Z" transform="translate(217.16 58.56)"/></g></g><path class="cls-21" d="M463.61,217.83a.85.85,0,0,1-.85.85.86.86,0,1,1,.85-.85Z" transform="translate(217.16 58.56)"/><path class="cls-21" d="M238.18,274.86a.85.85,0,1,1-1.7,0,.85.85,0,1,1,1.7,0Z" transform="translate(217.16 58.56)"/><path class="cls-21" d="M27.46,272.69a.86.86,0,1,1-1.71,0,.85.85,0,0,1,.85-.85A.86.86,0,0,1,27.46,272.69Z" transform="translate(217.16 58.56)"/><path class="cls-21" d="M343.54,158.88a.85.85,0,1,1-.85-.85A.85.85,0,0,1,343.54,158.88Z" transform="translate(217.16 58.56)"/><path class="cls-21" d="M404.73,93.47a.86.86,0,1,1-1.71,0,.86.86,0,0,1,1.71,0Z" transform="translate(217.16 58.56)"/><path class="cls-21" d="M303.57,51.37a.85.85,0,1,1-.85-.86A.85.85,0,0,1,303.57,51.37Z" transform="translate(217.16 58.56)"/><path class="cls-21" d="M476.29,268.6a.85.85,0,0,1-.85.85.86.86,0,1,1,.85-.85Z" transform="translate(217.16 58.56)"/><path class="cls-21" d="M558.58,369.78a.86.86,0,1,1-.86-.85A.85.85,0,0,1,558.58,369.78Z" transform="translate(217.16 58.56)"/><path class="cls-21" d="M292.92,331.8a.85.85,0,1,1-1.7,0,.85.85,0,0,1,1.7,0Z" transform="translate(217.16 58.56)"/><path class="cls-21" d="M160.45,350.14a.86.86,0,0,1-1.71,0,.86.86,0,1,1,1.71,0Z" transform="translate(217.16 58.56)"/><path class="cls-21" d="M23,366.78a.85.85,0,0,1-1.7,0,.85.85,0,1,1,1.7,0Z" transform="translate(217.16 58.56)"/><path class="cls-21" d="M213.56,239.61a.86.86,0,1,1-.86-.86A.85.85,0,0,1,213.56,239.61Z" transform="translate(217.16 58.56)"/><path class="cls-21" d="M146.93,185.43a.86.86,0,1,1-.85-.85A.85.85,0,0,1,146.93,185.43Z" transform="translate(217.16 58.56)"/><path class="cls-21" d="M180.24,57.33a.86.86,0,1,1-.86-.86A.85.85,0,0,1,180.24,57.33Z" transform="translate(217.16 58.56)"/><path class="cls-21" d="M259.4,41.72a.86.86,0,1,1-.85-.85A.85.85,0,0,1,259.4,41.72Z" transform="translate(217.16 58.56)"/><path class="cls-21" d="M490.67,60.36a.85.85,0,0,1-1.7,0,.85.85,0,1,1,1.7,0Z" transform="translate(217.16 58.56)"/><path class="cls-21" d="M609.53,85.41a.86.86,0,1,1-1.71,0,.85.85,0,0,1,.85-.85A.86.86,0,0,1,609.53,85.41Z" transform="translate(217.16 58.56)"/><path class="cls-21" d="M525.06,126a.85.85,0,1,1-1.7,0,.85.85,0,1,1,1.7,0Z" transform="translate(217.16 58.56)"/><path class="cls-21" d="M581.41,231.32a.86.86,0,0,1-1.71,0,.86.86,0,1,1,1.71,0Z" transform="translate(217.16 58.56)"/><path class="cls-21" d="M614.75,328.05a.85.85,0,1,1-.85-.85A.85.85,0,0,1,614.75,328.05Z" transform="translate(217.16 58.56)"/><path class="cls-21" d="M447,326.23a.85.85,0,1,1-.85-.86A.85.85,0,0,1,447,326.23Z" transform="translate(217.16 58.56)"/><path class="cls-21" d="M329.21,345a.85.85,0,1,1-.85-.85A.85.85,0,0,1,329.21,345Z" transform="translate(217.16 58.56)"/><path class="cls-21" d="M211.52,349.12a.85.85,0,1,1-1.7,0,.85.85,0,0,1,1.7,0Z" transform="translate(217.16 58.56)"/><path class="cls-21" d="M520.86,371a.85.85,0,1,1-.85-.86A.85.85,0,0,1,520.86,371Z" transform="translate(217.16 58.56)"/><path class="cls-21" d="M662.59,411.58a.86.86,0,1,1-1.71,0,.85.85,0,0,1,.85-.85A.86.86,0,0,1,662.59,411.58Z" transform="translate(217.16 58.56)"/><path class="cls-21" d="M612.62,341.93a.86.86,0,1,1-.86-.86A.85.85,0,0,1,612.62,341.93Z" transform="translate(217.16 58.56)"/><path class="cls-21" d="M497.06,256.34a.85.85,0,1,1-.85-.85A.85.85,0,0,1,497.06,256.34Z" transform="translate(217.16 58.56)"/><path class="cls-21" d="M591.79,155.24a.85.85,0,1,1-.85-.85A.85.85,0,0,1,591.79,155.24Z" transform="translate(217.16 58.56)"/><path class="cls-21" d="M660.58,166.72a.86.86,0,1,1-1.71,0,.85.85,0,0,1,.85-.85A.86.86,0,0,1,660.58,166.72Z" transform="translate(217.16 58.56)"/><path class="cls-21" d="M498.06,219.75a.85.85,0,1,1-.85-.85A.85.85,0,0,1,498.06,219.75Z" transform="translate(217.16 58.56)"/><path class="cls-21" d="M423.93,327.27a.86.86,0,0,1-1.71,0,.86.86,0,1,1,1.71,0Z" transform="translate(217.16 58.56)"/><path class="cls-21" d="M380.25,376.29a.86.86,0,0,1-1.71,0,.86.86,0,1,1,1.71,0Z" transform="translate(217.16 58.56)"/><path class="cls-21" d="M386.45,286.52a.85.85,0,1,1-.85-.85A.85.85,0,0,1,386.45,286.52Z" transform="translate(217.16 58.56)"/><path class="cls-21" d="M314.6,203.19a.86.86,0,0,1-.86.85.85.85,0,0,1,0-1.7A.86.86,0,0,1,314.6,203.19Z" transform="translate(217.16 58.56)"/><path class="cls-21" d="M362.54,108.32a.86.86,0,0,1-1.71,0,.86.86,0,1,1,1.71,0Z" transform="translate(217.16 58.56)"/><path class="cls-21" d="M69.88,59.43a.86.86,0,1,1-1.71,0,.86.86,0,0,1,1.71,0Z" transform="translate(217.16 58.56)"/><path class="cls-21" d="M95.87,219.84a.85.85,0,1,1-1.7,0,.85.85,0,0,1,1.7,0Z" transform="translate(217.16 58.56)"/><path class="cls-21" d="M55.36,355.29a.85.85,0,1,1-1.7,0,.85.85,0,0,1,1.7,0Z" transform="translate(217.16 58.56)"/><path class="cls-21" d="M573,61.4a.85.85,0,1,1-.85-.86A.85.85,0,0,1,573,61.4Z" transform="translate(217.16 58.56)"/><path class="cls-21" d="M258.38,10.32a.85.85,0,1,1-.85-.85A.85.85,0,0,1,258.38,10.32Z" transform="translate(217.16 58.56)"/></g></g></g></g></svg>